<?xml version="1.0" encoding="UTF-8" standalone="no"?>
<svg
   width="65px"
   viewBox="0 0 65 65"
   version="1.1"
   height="65px"
   id="svg14"
   sodipodi:docname="Archlinux-icon-crystal-64.svg"
   inkscape:export-filename="/home/raffaele/Pictures/budgie-menu-icons/arch-icon.png"
   inkscape:export-xdpi="96"
   inkscape:export-ydpi="96"
   inkscape:version="1.1.1 (3bf5ae0d25, 2021-09-20, custom)"
   xmlns:inkscape="http://www.inkscape.org/namespaces/inkscape"
   xmlns:sodipodi="http://sodipodi.sourceforge.net/DTD/sodipodi-0.dtd"
   xmlns="http://www.w3.org/2000/svg"
   xmlns:svg="http://www.w3.org/2000/svg">
  <sodipodi:namedview
     id="namedview16"
     pagecolor="#ffffff"
     bordercolor="#666666"
     borderopacity="1.0"
     inkscape:pageshadow="2"
     inkscape:pageopacity="0.0"
     inkscape:pagecheckerboard="0"
     showgrid="false"
     inkscape:zoom="11.061538"
     inkscape:cx="14.780946"
     inkscape:cy="32.500001"
     inkscape:window-width="1920"
     inkscape:window-height="1014"
     inkscape:window-x="0"
     inkscape:window-y="0"
     inkscape:window-maximized="1"
     inkscape:current-layer="svg14" />
  <defs
     id="defs7">
    <linearGradient
       id="lg"
       y1="9.90843"
       x2="25.431995"
       x1="34.76569"
       y2="28.426884"
       gradientTransform="matrix(0.75766215,0,0,0.87237709,6.2783505,6.3134176)"
       gradientUnits="userSpaceOnUse">
      <stop
         stop-color="#fff"
         stop-opacity="0"
         offset="0"
         id="stop2" />
      <stop
         stop-color="#fff"
         stop-opacity=".27451"
         offset="1"
         id="stop4" />
    </linearGradient>
  </defs>
  <path
     d="m 32.500002,6.4840742 c -2.316234,5.6782278 -3.722721,9.3974538 -6.30074,14.9071468 1.580468,1.67559 3.523536,3.620284 6.675532,5.824323 C 29.486215,25.821251 27.176485,24.425332 25.449676,22.972503 22.149713,29.858604 16.975789,39.664182 6.4840395,58.515999 14.727847,53.756704 21.119644,50.820152 27.075673,49.69984 26.820393,48.601479 26.684621,47.407996 26.694378,46.168173 l 0.0065,-0.26016 c 0.130893,-5.282866 2.879641,-9.345421 6.135702,-9.069815 3.255247,0.275607 5.790178,4.783686 5.659285,10.067365 -0.0252,0.995111 -0.14065,1.951197 -0.336582,2.838992 5.891803,1.152832 12.222625,4.075563 20.356677,8.771444 -1.604047,-2.952811 -3.040616,-5.613757 -4.40808,-8.1495 -2.153633,-1.669087 -4.399135,-3.840606 -8.981198,-6.192612 3.149558,0.81869 5.406442,1.76502 7.164147,2.820293 C 38.390179,21.112362 37.266615,17.670938 32.500002,6.4840742 v -7.32e-5 z"
     fill="#1793d1"
     id="path9"
     style="stroke-width:0.812999" />
  <path
     id="path2522"
     fill-opacity="0.16568"
     fill="#ffffff"
     d="M 47.14455,37.40981 C 35.86663,22.103481 33.252839,9.7662236 32.590245,6.8207289 38.606436,20.69618 38.564973,20.86691 47.14455,37.40981 Z"
     style="stroke-width:0.812999" />
  <path
     d="m 32.601627,6.687332 c -0.292679,0.7190812 -0.5691,1.4201464 -0.839015,2.0833095 -0.295931,0.7273088 -0.583733,1.4280325 -0.863404,2.1087565 -0.279672,0.680724 -0.563409,1.32592 -0.838203,1.981684 -0.275607,0.655684 -0.5317,1.303969 -0.812998,1.95632 -0.281298,0.652025 -0.590238,1.311367 -0.889421,1.981278 -0.299183,0.670724 -0.611375,1.347952 -0.939827,2.058513 -0.328451,0.709748 -0.673163,1.464211 -1.042265,2.235747 -0.04959,0.104063 -0.100811,0.224387 -0.152031,0.330077 1.576405,1.6699 3.520285,3.599146 6.656022,5.792617 -3.387766,-1.394293 -5.690992,-2.790212 -7.418614,-4.243041 -0.08943,0.183738 -0.160973,0.345524 -0.253655,0.533327 -0.341461,0.708122 -0.708122,1.408927 -1.092671,2.185341 -0.09187,0.182112 -0.159347,0.34715 -0.253655,0.533327 -0.407313,0.816251 -0.834137,1.660957 -1.29592,2.565825 -0.09187,0.178859 -0.185364,0.326825 -0.279672,0.508124 -0.278858,0.54227 -1.170718,2.252007 -2.082903,3.989385 -0.532514,1.014623 -0.950397,1.845507 -1.550389,2.972324 -0.169916,0.323573 -0.519506,0.971533 -0.609749,1.143076 6.605616,-3.717844 13.732362,-9.118595 26.676931,-4.496696 -0.64796,-1.227629 -1.269904,-2.373144 -1.829248,-3.455245 -0.559343,-1.082915 -1.066654,-2.09022 -1.549575,-3.048746 -0.482922,-0.958526 -0.929259,-1.86258 -1.347139,-2.718668 -0.41707,-0.856088 -0.804056,-1.664209 -1.16828,-2.438997 -0.364224,-0.774788 -0.719504,-1.520307 -1.041452,-2.235746 -0.322761,-0.714626 -0.622757,-1.406488 -0.914623,-2.082903 -0.291866,-0.677229 -0.565035,-1.347953 -0.839016,-2.007295 -0.273167,-0.659748 -0.546334,-1.292343 -0.812998,-1.956319 -0.115445,-0.288939 -0.213819,-0.596578 -0.330078,-0.889258 -0.721942,-1.695021 -1.430064,-3.3751644 -2.286152,-5.386117 v 1.63e-5 z"
     fill="url(#lg)"
     id="path12"
     style="fill:url(#lg);stroke-width:0.812999" />
</svg>
