<?xml version="1.0" encoding="UTF-8" standalone="no"?>
<svg
   viewBox="-178.3 -167.1 700 700"
   version="1.1"
   id="svg2"
   sodipodi:docname="awesome.svg"
   width="700"
   height="700"
   inkscape:version="1.3.2 (091e20ef0f, 2023-11-25, custom)"
   xmlns:inkscape="http://www.inkscape.org/namespaces/inkscape"
   xmlns:sodipodi="http://sodipodi.sourceforge.net/DTD/sodipodi-0.dtd"
   xmlns="http://www.w3.org/2000/svg"
   xmlns:svg="http://www.w3.org/2000/svg">
  <defs
     id="defs2" />
  <sodipodi:namedview
     id="namedview2"
     pagecolor="#ffffff"
     bordercolor="#000000"
     borderopacity="0.25"
     inkscape:showpageshadow="2"
     inkscape:pageopacity="0.0"
     inkscape:pagecheckerboard="0"
     inkscape:deskcolor="#d1d1d1"
     inkscape:zoom="0.76266517"
     inkscape:cx="499.56392"
     inkscape:cy="349.4325"
     inkscape:window-width="2560"
     inkscape:window-height="1009"
     inkscape:window-x="0"
     inkscape:window-y="0"
     inkscape:window-maximized="1"
     inkscape:current-layer="svg2" />
  <path
     d="m -70.15,335.8 c 4,0 7.3,1.4 10.1,4.2 2.8,2.8 4.2,6.2 4.2,10.1 v 49.6 h -50.7 c -4,0 -7.3,-1.4 -10.1,-4.2 -2.8,-2.8 -4.2,-6.2 -4.2,-10.1 v -23.6 h 53.1 v -11.7 c 0,-0.7 -0.2,-1.2 -0.7,-1.7 -0.5,-0.5 -1,-0.7 -1.7,-0.7 h -50.7 v -11.9 z m 2.4,52 v -14.1 h -41.2 v 11.7 c 0,0.7 0.2,1.2 0.7,1.7 0.5,0.5 1,0.7 1.7,0.7 z m 114.7,-52 h 12.7 l -24,63.9 h -9.7 l -21.5,-47.5 -20.3,47.5 -0.2,-0.1 0.1,0.1 h -9.6 l -25.1,-63.9 h 12.6 l 17.3,42.4 18.4,-42.4 h 13.6 l 19.5,42.4 z m 67.2,0 c 4,0 7.3,1.4 10.1,4.2 2.8,2.8 4.2,6.2 4.2,10.1 v 23.6 h -53.1 v 11.7 c 0,0.7 0.2,1.2 0.7,1.7 0.5,0.5 1,0.7 1.7,0.7 h 50.7 v 11.9 h -50.7 c -4,0 -7.3,-1.4 -10.1,-4.2 -2.8,-2.8 -4.2,-6.2 -4.2,-10.1 v -35.3 c 0,-4 1.4,-7.3 4.2,-10.1 2.8,-2.8 6.2,-4.2 10.1,-4.2 z m -38.8,26 h 41.2 v -11.7 c 0,-0.7 -0.2,-1.2 -0.7,-1.7 -0.5,-0.5 -1,-0.7 -1.7,-0.7 h -36.4 c -0.7,0 -1.2,0.2 -1.7,0.7 -0.5,0.5 -0.7,1 -0.7,1.7 z m 129,-11.6 v 2.4 h -11.9 v -2.4 c 0,-0.7 -0.2,-1.2 -0.7,-1.7 -0.5,-0.5 -1,-0.7 -1.7,-0.7 h -36.4 c -0.7,0 -1.2,0.2 -1.7,0.7 -0.5,0.5 -0.7,1 -0.7,1.7 v 9.3 c 0,0.7 0.2,1.2 0.7,1.7 0.5,0.5 1,0.7 1.7,0.7 h 36.4 c 4,0 7.3,1.4 10.1,4.2 2.8,2.8 4.2,6.2 4.2,10.1 v 9.3 c 0,4 -1.4,7.3 -4.2,10.1 -2.8,2.8 -6.2,4.2 -10.1,4.2 h -36.4 c -4,0 -7.3,-1.4 -10.1,-4.2 -2.8,-2.8 -4.2,-6.2 -4.2,-10.1 v -2.4 h 11.9 v 2.4 c 0,0.7 0.2,1.2 0.7,1.7 0.5,0.5 1,0.7 1.7,0.7 h 36.4 c 0.7,0 1.2,-0.2 1.7,-0.7 0.5,-0.5 0.7,-1 0.7,-1.7 v -9.3 c 0,-0.7 -0.2,-1.2 -0.7,-1.7 -0.5,-0.5 -1,-0.7 -1.7,-0.7 h -36.4 c -4,0 -7.3,-1.4 -10.1,-4.2 -2.8,-2.8 -4.2,-6.2 -4.2,-10.1 v -9.3 c 0,-4 1.4,-7.3 4.2,-10.1 2.8,-2.8 6.2,-4.2 10.1,-4.2 h 36.4 c 4,0 7.3,1.4 10.1,4.2 2.8,2.7 4.2,6.1 4.2,10.1 z m 25.2,-14.4 h 36.4 c 4,0 7.3,1.4 10.1,4.2 2.8,2.8 4.2,6.2 4.2,10.1 v 35.3 c 0,4 -1.4,7.3 -4.2,10.1 -2.8,2.8 -6.2,4.2 -10.1,4.2 h -36.4 c -4,0 -7.3,-1.4 -10.1,-4.2 -2.8,-2.8 -4.2,-6.2 -4.2,-10.1 v -35.3 c 0,-4 1.4,-7.3 4.2,-10.1 2.8,-2.8 6.2,-4.2 10.1,-4.2 z m 36.4,11.9 h -36.4 c -0.7,0 -1.2,0.2 -1.7,0.7 -0.5,0.5 -0.7,1 -0.7,1.7 v 35.3 c 0,0.7 0.2,1.2 0.7,1.7 0.5,0.5 1,0.7 1.7,0.7 h 36.4 c 0.7,0 1.2,-0.2 1.7,-0.7 0.5,-0.5 0.7,-1 0.7,-1.7 v -35.3 c 0,-0.7 -0.2,-1.2 -0.7,-1.7 -0.5,-0.4 -1,-0.7 -1.7,-0.7 z m 107.5,-11.9 c 4,0 7.3,1.4 10.1,4.2 2.8,2.8 4.2,6.2 4.2,10.1 v 49.6 h -11.8 v -49.6 c 0,-0.7 -0.2,-1.2 -0.7,-1.7 -0.5,-0.5 -1.1,-0.7 -1.8,-0.7 h -25.2 c -0.7,0 -1.2,0.2 -1.7,0.7 -0.5,0.5 -0.7,1 -0.7,1.7 v 49.6 h -11.9 v -49.6 c 0,-0.7 -0.2,-1.2 -0.7,-1.7 -0.5,-0.5 -1,-0.7 -1.7,-0.7 h -25.3 c -0.7,0 -1.2,0.2 -1.7,0.7 -0.5,0.5 -0.7,1 -0.7,1.7 v 49.6 h -11.9 v -63.9 z m 76.5,0 c 4,0 7.3,1.4 10.1,4.2 2.8,2.8 4.2,6.2 4.2,10.1 v 23.6 h -53.1 v 11.7 c 0,0.7 0.2,1.2 0.7,1.7 0.5,0.5 1,0.7 1.7,0.7 h 50.7 v 11.9 h -50.7 c -4,0 -7.3,-1.4 -10.1,-4.2 -2.8,-2.8 -4.2,-6.2 -4.2,-10.1 v -35.3 c 0,-4 1.4,-7.3 4.2,-10.1 2.8,-2.8 6.2,-4.2 10.1,-4.2 z m -38.8,26 h 41.2 v -11.7 c 0,-0.7 -0.2,-1.2 -0.7,-1.7 -0.5,-0.5 -1,-0.7 -1.7,-0.7 h -36.4 c -0.7,0 -1.2,0.2 -1.7,0.7 -0.5,0.5 -0.7,1 -0.7,1.7 z"
     fill="#494368"
     id="path1" />
  <path
     fill="#fc60a8"
     d="m 464.15,103.7 -150,-137.6 -21.1,23 125,114.6 h -492.7 l 125,-114.7 -21.1,-23 -150,137.7 h -0.1 v 90.7 c 0,41 39.5,74.4 88,74.4 h 92.5 c 48.5,0 88,-33.4 88,-74.4 v -59.6 h 48 v 59.6 c 0,41 39.5,74.4 88,74.4 h 92.5 c 48.5,0 88,-33.4 88,-74.4 z"
     id="path2" />
</svg>
