<?xml version="1.0" encoding="UTF-8" standalone="no"?>
<!-- Uploaded to: SVG Repo, www.svgrepo.com, Generator: SVG Repo Mixer Tools -->

<svg
   fill="#000000"
   width="800px"
   height="800px"
   viewBox="0 0 512 512"
   version="1.1"
   id="svg1"
   sodipodi:docname="build-svgrepo-com.svg"
   inkscape:version="1.3.2 (091e20ef0f, 2023-11-25, custom)"
   xmlns:inkscape="http://www.inkscape.org/namespaces/inkscape"
   xmlns:sodipodi="http://sodipodi.sourceforge.net/DTD/sodipodi-0.dtd"
   xmlns="http://www.w3.org/2000/svg"
   xmlns:svg="http://www.w3.org/2000/svg">
  <defs
     id="defs1" />
  <sodipodi:namedview
     id="namedview1"
     pagecolor="#ffffff"
     bordercolor="#000000"
     borderopacity="0.25"
     inkscape:showpageshadow="2"
     inkscape:pageopacity="0.0"
     inkscape:pagecheckerboard="0"
     inkscape:deskcolor="#d1d1d1"
     inkscape:zoom="0.94375"
     inkscape:cx="400"
     inkscape:cy="400"
     inkscape:window-width="2560"
     inkscape:window-height="1009"
     inkscape:window-x="0"
     inkscape:window-y="0"
     inkscape:window-maximized="1"
     inkscape:current-layer="svg1" />
  <title
     id="title1">ionicons-v5-h</title>
  <path
     d="M469.54,120.52h0a16,16,0,0,0-25.54-4L382.56,178a16.12,16.12,0,0,1-22.63,0L333.37,151.4a16,16,0,0,1,0-22.63l61.18-61.19a16,16,0,0,0-4.78-25.92h0C343.56,21,285.88,31.78,249.51,67.88c-30.9,30.68-40.11,78.62-25.25,131.53a15.89,15.89,0,0,1-4.49,16L53.29,367.46a64.17,64.17,0,1,0,90.6,90.64L297.57,291.25a15.9,15.9,0,0,1,15.77-4.57,179.3,179.3,0,0,0,46.22,6.37c33.4,0,62.71-10.81,83.85-31.64C482.56,222.84,488.53,157.42,469.54,120.52ZM99.48,447.15a32,32,0,1,1,28.34-28.35A32,32,0,0,1,99.48,447.15Z"
     id="path1"
     style="fill:#cccccc" />
</svg>
