<?xml version="1.0" encoding="UTF-8" standalone="no"?>
<svg
   viewBox="0 0 128 128"
   version="1.1"
   id="svg7"
   sodipodi:docname="css.svg"
   inkscape:version="1.3.2 (091e20ef0f, 2023-11-25, custom)"
   xmlns:inkscape="http://www.inkscape.org/namespaces/inkscape"
   xmlns:sodipodi="http://sodipodi.sourceforge.net/DTD/sodipodi-0.dtd"
   xmlns="http://www.w3.org/2000/svg"
   xmlns:svg="http://www.w3.org/2000/svg">
  <defs
     id="defs7" />
  <sodipodi:namedview
     id="namedview7"
     pagecolor="#ffffff"
     bordercolor="#000000"
     borderopacity="0.25"
     inkscape:showpageshadow="2"
     inkscape:pageopacity="0.0"
     inkscape:pagecheckerboard="0"
     inkscape:deskcolor="#d1d1d1"
     inkscape:zoom="4.1708252"
     inkscape:cx="64.375751"
     inkscape:cy="71.808333"
     inkscape:window-width="2560"
     inkscape:window-height="1009"
     inkscape:window-x="0"
     inkscape:window-y="0"
     inkscape:window-maximized="1"
     inkscape:current-layer="svg7" />
  <path
     fill="#1572b6"
     d="M 21.020099,111.67696 11.455885,4.4082266 H 116.54412 L 106.97164,111.65924 63.935625,123.59177 Z"
     id="path2"
     style="stroke-width:1.1812" />
  <path
     fill="#33a9dc"
     d="M 64.001773,114.47169 98.775255,104.8307 106.95628,13.179852 H 64.001773 Z"
     id="path3"
     style="stroke-width:1.1812" />
  <path
     fill="#ffffff"
     d="M 64.000592,52.042665 H 81.409185 L 82.612833,38.571026 H 64.000592 V 25.414769 h 32.989863 l -0.31538,3.52944 -3.23296,36.253532 H 64.000592 Z"
     id="path4"
     style="stroke-width:1.1812" />
  <path
     fill="#ebebeb"
     d="M 64.079732,86.21019 64.021852,86.22673 49.370191,82.269692 48.432315,71.777051 H 35.227628 l 1.843861,20.656906 26.948002,7.480566 0.06142,-0.0177 V 86.21019 Z"
     id="path5"
     style="stroke-width:1.1812" />
  <path
     fill="#ffffff"
     d="M 80.291766,64.641394 78.706589,82.260242 64.033665,86.220821 V 99.908623 L 91.004111,92.433957 91.202553,90.21093 93.491725,64.641394 Z"
     id="path6"
     style="stroke-width:1.1812" />
  <path
     fill="#ebebeb"
     d="M 64.046659,25.414769 V 38.569845 H 32.268711 l -0.26459,-2.956555 -0.598871,-6.669081 -0.315382,-3.52944 z m -0.04607,26.629077 v 13.156258 h -14.46621 l -0.263409,-2.956556 -0.600052,-6.670262 -0.315382,-3.52944 z"
     id="path7"
     style="stroke-width:1.1812" />
</svg>
