<?xml version="1.0" encoding="UTF-8" standalone="no"?>
<svg
   version="1.1"
   width="300"
   height="300"
   id="svg2"
   sodipodi:docname="docker.svg"
   inkscape:version="1.4 (e7c3feb100, 2024-10-09)"
   xmlns:inkscape="http://www.inkscape.org/namespaces/inkscape"
   xmlns:sodipodi="http://sodipodi.sourceforge.net/DTD/sodipodi-0.dtd"
   xmlns:xlink="http://www.w3.org/1999/xlink"
   xmlns="http://www.w3.org/2000/svg"
   xmlns:svg="http://www.w3.org/2000/svg"
   xmlns:rdf="http://www.w3.org/1999/02/22-rdf-syntax-ns#"
   xmlns:cc="http://creativecommons.org/ns#"
   xmlns:dc="http://purl.org/dc/elements/1.1/">
  <sodipodi:namedview
     id="namedview1"
     pagecolor="#ffffff"
     bordercolor="#000000"
     borderopacity="0.25"
     inkscape:showpageshadow="2"
     inkscape:pageopacity="0.0"
     inkscape:pagecheckerboard="0"
     inkscape:deskcolor="#d1d1d1"
     inkscape:zoom="1.4205891"
     inkscape:cx="249.89633"
     inkscape:cy="58.778432"
     inkscape:window-width="2560"
     inkscape:window-height="1009"
     inkscape:window-x="1080"
     inkscape:window-y="464"
     inkscape:window-maximized="1"
     inkscape:current-layer="svg2" />
  <metadata
     id="metadata4">
    <rdf:RDF>
      <cc:Work
         rdf:about="">
        <dc:format>image/svg+xml</dc:format>
        <dc:type
           rdf:resource="http://purl.org/dc/dcmitype/StillImage" />
      </cc:Work>
    </rdf:RDF>
  </metadata>
  <defs
     id="defs6">
    <clipPath
       id="clipPath8">
      <path
         d="M 76,2 V 48 H 54 V 71 H 35.580737 c -0.07818,0.665694 -0.141485,1.332869 -0.205737,2 -1.151162,12.530963 1.036422,24.087546 6.0625,33.96875 L 43.125,110 c 1.011403,1.81678 2.191241,3.52297 3.4375,5.1875 1.244725,1.66248 1.685716,2.58262 2.46875,3.6875 C 62.319911,133.81083 82.129473,141 105,141 155.64836,141 198.63299,118.56201 217.65625,68.15625 231.15302,69.54122 244.09968,66.080358 250,54.5625 240.60137,49.138835 228.52163,50.877226 221.5625,54.375 L 240,2 168,48 H 145 V 2 Z"
         id="path10" />
    </clipPath>
  </defs>
  <path
     d="m 172.6023,119.78758 h 25.89516 v 26.47129 h 13.09343 c 6.04633,0 12.26551,-1.07717 17.99161,-3.01742 2.81361,-0.95404 5.97174,-2.28169 8.74715,-3.95142 -3.65545,-4.77266 -5.52171,-10.79898 -6.07121,-16.73918 -0.74601,-8.07937 0.88369,-18.59571 6.35202,-24.919222 l 2.72203,-3.148416 3.24364,2.60741 c 8.1667,6.561268 15.03487,15.729328 16.24546,26.180768 9.83342,-2.89247 21.37839,-2.20833 30.04609,2.7942 l 3.55599,2.05185 -1.87171,3.65302 c -7.33038,14.30697 -22.65517,18.73877 -37.63788,17.95455 -22.41976,55.8405 -71.23017,82.27722 -130.41255,82.27722 -30.575568,0 -58.628041,-11.42975 -74.602397,-38.55729 -0.936577,-1.6851 -1.738612,-3.44714 -2.589206,-5.1778 -5.399792,-11.94106 -7.193251,-25.02234 -5.976586,-38.0927 l 0.365122,-3.91505 H 63.841668 V 119.7881 H 89.736833 V 93.892932 H 141.52717 V 67.997766 h 31.07472 V 119.7881"
     id="path14"
     style="fill:#394d54;stroke-width:1.13248" />
  <g
     clip-path="url(#clipPath8)"
     id="g16"
     transform="matrix(1.1324747,0,0,1.1324747,5.57633,67.997241)">
    <g
       id="g18">
      <g
         transform="translate(0,-22.866)"
         id="g20">
        <path
           d="m 123.85901,3.8110794 h 19.81751 V 23.62805 h -19.81751 z"
           id="path22"
           style="fill:#00acd3" />
        <path
           d="m 123.85901,26.676485 h 19.81751 v 19.818043 h -19.81751 z"
           id="path24"
           style="fill:#20c2ef" />
        <path
           d="M 126.29235,21.976904 V 5.4611548 M 129.2642,21.976904 V 5.4611548 m 3.00184,16.5157492 V 5.4611548 m 3.00344,16.5157492 V 5.4611548 M 138.2724,21.976904 V 5.4611548 m 2.97131,16.5157492 V 5.4611548"
           id="path26"
           style="stroke:#394d54;stroke-width:1.56" />
        <use
           transform="translate(0,22.866)"
           id="use28"
           xlink:href="#path26" />
      </g>
      <use
         transform="matrix(1,0,0,-1,22.866,4.572651)"
         id="use30"
         xlink:href="#g20" />
    </g>
    <use
       transform="translate(-91.464,45.732)"
       id="use32"
       xlink:href="#g18" />
    <use
       transform="translate(-45.732,45.732)"
       id="use34"
       xlink:href="#g18" />
    <use
       transform="translate(0,45.732)"
       id="use36"
       xlink:href="#g18" />
  </g>
  <path
     d="m 221.57014,54.379649 c 1.53332,-11.915247 -7.38383,-21.274779 -12.91407,-25.71836 -6.37269,7.367765 -7.36295,26.677556 2.63498,34.807431 -5.57952,4.956117 -17.33731,9.448435 -29.37574,9.448435 L 34,72.917155 C 32.829255,85.484184 34,146 34,146 h 217 l -0.98657,-91.424 c -9.39863,-5.423665 -21.48419,-3.694326 -28.44332,-0.196552"
     clip-path="url(#clipPath8)"
     id="path38"
     style="fill:#17b5eb"
     transform="matrix(1.1324747,0,0,1.1324747,5.57633,67.997241)" />
  <path
     d="m 34,89 v 57 H 251 V 89"
     clip-path="url(#clipPath8)"
     id="path40"
     style="fill-opacity:0.17"
     transform="matrix(1.1324747,0,0,1.1324747,5.57633,67.997241)" />
  <path
     d="M 111.23736,140.88997 C 97.697741,134.4648 90.265707,125.73081 86.130611,116.19562 L 45,118 l 21,28 45.23736,-5.11003"
     clip-path="url(#clipPath8)"
     id="path42"
     style="fill:#d4edf1"
     transform="matrix(1.1324747,0,0,1.1324747,5.57633,67.997241)" />
  <path
     d="m 222.5,53.9375 v 0.03125 c -20.86119,26.889144 -50.78312,50.37872 -82.90625,62.71875 -28.65478,11.00767 -53.638381,11.06039 -70.875,2.21875 -1.85607,-1.04832 -3.675701,-2.21152 -5.5,-3.3125 C 50.582097,106.76175 43.464274,92.152308 44.0625,72.90625 H 34 V 146 H 251 V 50 h -25 z"
     clip-path="url(#clipPath8)"
     id="path44"
     style="fill-opacity:0.085"
     transform="matrix(1.1324747,0,0,1.1324747,5.57633,67.997241)" />
  <path
     d="m 57.245487,200.53217 c 16.041677,0.87802 33.161638,1.03545 48.094783,-3.64515"
     id="path46"
     style="fill:none;stroke:#394d54;stroke-width:3.85041;stroke-linecap:round" />
  <path
     d="m 121.28154,189.1259 c 0,3.41892 -2.77177,6.19069 -6.19068,6.19069 -3.41952,0 -6.1919,-2.77177 -6.1919,-6.19069 0,-3.4189 2.77238,-6.1919 6.1919,-6.1919 3.41891,0 6.19068,2.773 6.19068,6.1919 z"
     id="path48"
     style="fill:#d4edf1;stroke-width:1.13248" />
  <path
     d="m 116.6963,184.99069 c -0.5404,0.31237 -0.90613,0.89764 -0.90613,1.56723 0,0.99953 0.8103,1.80864 1.80983,1.80864 0.68476,0 1.27975,-0.3803 1.58726,-0.94193 0.21713,0.52343 0.33783,1.0984 0.33783,1.70127 0,2.4485 -1.98513,4.43361 -4.43423,4.43361 -2.4485,0 -4.43484,-1.98511 -4.43484,-4.43361 0,-2.4497 1.98634,-4.43543 4.43484,-4.43543 0.56649,0 1.10689,0.10679 1.60544,0.30022 z"
     id="path50"
     style="fill:#394d54;stroke-width:1.13248" />
  <path
     d="m 5.57633,170.10381 h 288.01938 c -6.27136,-1.59088 -19.8421,-3.73976 -17.60407,-11.95862 -11.40305,13.19531 -38.9036,9.25721 -45.84393,2.75052 -7.7288,11.20959 -52.7218,6.94884 -55.85992,-1.78374 -9.68905,11.37092 -39.71268,11.37092 -49.40234,0 -3.13932,8.73258 -48.131712,12.99333 -55.861122,1.78374 -6.940336,6.50669 -34.438451,10.44479 -45.842726,-2.75052 2.238035,8.21886 -11.332708,10.36774 -17.605272,11.95862"
     id="path52"
     style="fill:#394d54;stroke-width:1.13248" />
</svg>
