<?xml version="1.0" encoding="UTF-8" standalone="no"?>
<svg
   width="31"
   height="31"
   viewBox="0 0 31 31"
   fill="none"
   version="1.1"
   id="svg10"
   sodipodi:docname="framework.svg"
   inkscape:version="1.3.2 (091e20ef0f, 2023-11-25, custom)"
   xmlns:inkscape="http://www.inkscape.org/namespaces/inkscape"
   xmlns:sodipodi="http://sodipodi.sourceforge.net/DTD/sodipodi-0.dtd"
   xmlns="http://www.w3.org/2000/svg"
   xmlns:svg="http://www.w3.org/2000/svg">
  <defs
     id="defs10">
    <inkscape:path-effect
       effect="fillet_chamfer"
       id="path-effect1"
       is_visible="true"
       lpeversion="1"
       nodesatellites_param="F,0,0,1,0,3,0,1 @ F,0,0,1,0,3,0,1 @ F,0,0,1,0,3,0,1 @ F,0,0,1,0,3,0,1"
       radius="3"
       unit="px"
       method="auto"
       mode="F"
       chamfer_steps="1"
       flexible="false"
       use_knot_distance="true"
       apply_no_radius="true"
       apply_with_radius="true"
       only_selected="false"
       hide_knots="false" />
  </defs>
  <sodipodi:namedview
     id="namedview10"
     pagecolor="#ffffff"
     bordercolor="#000000"
     borderopacity="0.25"
     inkscape:showpageshadow="2"
     inkscape:pageopacity="0.0"
     inkscape:pagecheckerboard="0"
     inkscape:deskcolor="#d1d1d1"
     inkscape:zoom="8.4167512"
     inkscape:cx="-2.079187"
     inkscape:cy="11.821663"
     inkscape:window-width="2560"
     inkscape:window-height="1009"
     inkscape:window-x="0"
     inkscape:window-y="0"
     inkscape:window-maximized="1"
     inkscape:current-layer="svg10" />
  <path
     style="fill:#ffffff;stroke-width:1.07142"
     id="rect1"
     width="31"
     height="31"
     x="0"
     y="0"
     inkscape:path-effect="#path-effect1"
     sodipodi:type="rect"
     d="m 3,0 h 25 a 3,3 45 0 1 3,3 v 25 a 3,3 135 0 1 -3,3 H 3 A 3,3 45 0 1 0,28 V 3 A 3,3 135 0 1 3,0 Z" />
  <path
     d="M 29.8938,11.73033 27.6107,10.37638 C 26.5418,9.7402797 25.8811,8.5675797 25.8811,7.2989197 v -2.70788 c 0,-0.55437 -0.2456,-1.07675 -0.6642,-1.42501 -1.2453,-1.03411 -2.6463,-1.872774 -4.1614,-2.4733409 -0.5051,-0.1990039 -1.0689,-0.1599138 -1.5359,0.117271 l -2.2865,1.3574899 c -1.0689,0.63611 -2.3869,0.63611 -3.4592,0 L 11.4873,0.8099598 C 11.0203,0.532775 10.453,0.4901312 9.9514301,0.6926888 c -1.51859,0.6005669 -2.91611,1.4392309 -4.15797,2.4697909 -0.41856,0.34825 -0.66416,0.87064 -0.66416,1.42501 v 2.70788 c 0,1.26865 -0.65725,2.44136 -1.72961,3.0774603 l -2.28307,1.3539 c -0.46699601,0.2772 -0.78524301,0.757 -0.86826401,1.3042 -0.12799,0.8067 -0.190256,1.6312 -0.190256,2.4698 0,0.8387 0.06227,1.6631 0.186797,2.4662 0.08302,0.5473 0.401268,1.0306 0.86826301,1.3078 l 2.28307,1.3539 c 1.0689,0.6361 1.72961,1.8088 1.72961,3.0775 v 2.7079 c 0,0.5543 0.2456,1.0767 0.66416,1.425 1.24186,1.0305 2.64284,1.8692 4.15797,2.4698 0.5050299,0.199 1.0689299,0.1599 1.5359299,-0.1173 l 2.2865,-1.3575 c 1.0689,-0.6361 2.3868,-0.6361 3.4592,0 l 2.2865,1.3575 c 0.467,0.2772 1.0343,0.3163 1.5359,0.1173 1.5152,-0.6006 2.9161,-1.4393 4.158,-2.4698 0.4186,-0.3483 0.6642,-0.8707 0.6642,-1.425 v -2.7079 c 0,-1.2687 0.6607,-2.4414 1.7296,-3.0775 l 2.283,-1.3539 c 0.467,-0.2772 0.7853,-0.7569 0.8683,-1.3078 0.1211,-0.8031 0.1868,-1.6275 0.1868,-2.4662 0,-0.8386 -0.0623,-1.6631 -0.1868,-2.4662 -0.0796,-0.5473 -0.3944,-1.027 -0.8613,-1.3042 z m -14.3903,13.3049 c -5.1231,0 -9.2776399,-4.268 -9.2776399,-9.5309 0,-5.26299 4.1545399,-9.5309203 9.2776399,-9.5309203 5.123,0 9.2775,4.2679303 9.2775,9.5309203 0,5.2629 -4.1545,9.5309 -9.2775,9.5309 z"
     fill="white"
     id="path10"
     style="fill:#000000" />
</svg>
