<?xml version="1.0" encoding="UTF-8" standalone="no"?>
<svg
   viewBox="0 0 128 128"
   version="1.1"
   id="svg5"
   sodipodi:docname="html_original_wordmark_logo_icon_146478.svg"
   inkscape:version="1.3.2 (091e20ef0f, 2023-11-25, custom)"
   xmlns:inkscape="http://www.inkscape.org/namespaces/inkscape"
   xmlns:sodipodi="http://sodipodi.sourceforge.net/DTD/sodipodi-0.dtd"
   xmlns="http://www.w3.org/2000/svg"
   xmlns:svg="http://www.w3.org/2000/svg">
  <defs
     id="defs5" />
  <sodipodi:namedview
     id="namedview5"
     pagecolor="#ffffff"
     bordercolor="#000000"
     borderopacity="0.25"
     inkscape:showpageshadow="2"
     inkscape:pageopacity="0.0"
     inkscape:pagecheckerboard="0"
     inkscape:deskcolor="#d1d1d1"
     inkscape:zoom="4.1708252"
     inkscape:cx="41.838244"
     inkscape:cy="72.767375"
     inkscape:window-width="2560"
     inkscape:window-height="1009"
     inkscape:window-x="0"
     inkscape:window-y="0"
     inkscape:window-maximized="1"
     inkscape:current-layer="svg5" />
  <path
     fill="#e44d26"
     d="M 20.778696,111.94449 11.16134,4.0753715 H 116.83866 L 107.21174,111.92775 63.935429,123.92463 Z"
     id="path1"
     style="stroke-width:1.19574" />
  <path
     fill="#f16529"
     d="m 63.999999,114.75448 34.968291,-9.69508 8.2279,-92.163037 H 63.999999 Z"
     id="path2"
     style="stroke-width:1.19574" />
  <path
     fill="#ebebeb"
     d="M 63.999999,52.903511 H 46.493135 L 45.285436,39.354555 H 63.999999 V 26.124861 h -33.17348 l 0.315676,3.550159 3.252419,36.456989 h 29.605385 z m 0,34.357266 -0.05859,0.01554 -14.732742,-3.97943 -0.942245,-10.550035 h -13.28111 l 1.853401,20.772436 27.100304,7.523612 0.06098,-0.0179 z"
     id="path3"
     style="stroke-width:1.19574" />
  <path
     fill="#ffffff"
     d="m 63.954561,52.903511 v 13.228498 h 16.290794 l -1.535333,17.157707 -14.755461,3.983018 v 13.762996 l 27.121828,-7.516438 0.198494,-2.236038 3.108927,-34.828388 0.32285,-3.551355 h -3.565701 z m 0,-26.77865 V 39.354555 H 95.91078 l 0.26425,-2.973812 0.60385,-6.705723 0.31688,-3.550159 z"
     id="path5"
     style="stroke-width:1.19574" />
</svg>
