<?xml version="1.0" encoding="UTF-8" standalone="no"?>
<svg
   viewBox="0 0 128 128"
   version="1.1"
   id="svg6"
   sodipodi:docname="java.svg"
   inkscape:version="1.3.2 (091e20ef0f, 2023-11-25, custom)"
   xmlns:inkscape="http://www.inkscape.org/namespaces/inkscape"
   xmlns:sodipodi="http://sodipodi.sourceforge.net/DTD/sodipodi-0.dtd"
   xmlns="http://www.w3.org/2000/svg"
   xmlns:svg="http://www.w3.org/2000/svg">
  <defs
     id="defs6" />
  <sodipodi:namedview
     id="namedview6"
     pagecolor="#ffffff"
     bordercolor="#000000"
     borderopacity="0.25"
     inkscape:showpageshadow="2"
     inkscape:pageopacity="0.0"
     inkscape:pagecheckerboard="0"
     inkscape:deskcolor="#d1d1d1"
     inkscape:zoom="4.1708252"
     inkscape:cx="58.861254"
     inkscape:cy="50.70939"
     inkscape:window-width="2560"
     inkscape:window-height="1009"
     inkscape:window-x="0"
     inkscape:window-y="0"
     inkscape:window-maximized="1"
     inkscape:current-layer="svg6" />
  <path
     fill="#0074bd"
     d="m 48.90684,95.430796 c 0,0 -4.391144,2.555261 3.130228,3.419049 9.111224,1.04029 13.768458,0.890531 23.807652,-1.006861 0,0 2.646186,1.654034 6.331324,3.087436 -22.51197,9.64475 -50.950113,-0.55892 -33.269204,-5.499624 z M 46.153683,82.84169 c 0,0 -4.925997,3.649036 2.600724,4.427247 9.734328,1.004187 17.418831,1.087089 30.725977,-1.474858 0,0 1.835884,1.866638 4.728102,2.884196 C 56.995157,96.639564 26.683691,89.30539 46.153683,82.84169 Z"
     id="path1"
     style="stroke-width:1.33713" />
  <path
     fill="#ea2d2e"
     d="m 69.34358,61.48634 c 5.550439,6.388821 -1.454801,12.133144 -1.454801,12.133144 0,0 14.084021,-7.269992 7.616309,-16.377204 -6.042503,-8.489457 -10.672995,-12.705437 14.402259,-27.248095 0.001,0 -39.362519,9.827927 -20.563767,31.492155 z"
     id="path2"
     style="stroke-width:1.33713" />
  <path
     fill="#0074bd"
     d="m 99.117517,104.74259 c 0,0 3.251913,2.68095 -3.58084,4.75351 -12.991584,3.93518 -54.079004,5.12256 -65.491434,0.15644 -4.09965,-1.78507 3.592876,-4.26144 6.01175,-4.78158 2.523169,-0.54689 3.964599,-0.44661 3.964599,-0.44661 -4.562298,-3.21313 -29.490467,6.30993 -12.661312,9.0417 45.895751,7.43847 83.6604,-3.35086 71.757237,-8.72346 z M 51.020847,69.797958 c 0,0 -20.89805,4.964775 -7.399693,6.769904 5.701534,0.762166 17.059141,0.587001 27.64656,-0.300855 8.649913,-0.726063 17.33058,-2.278474 17.33058,-2.278474 0,0 -3.047326,1.307716 -5.254933,2.813327 -21.225648,5.58253 -62.220806,2.981807 -50.417934,-2.725077 9.979023,-4.828387 18.09542,-4.278825 18.09542,-4.278825 z M 88.51138,90.750831 c 21.57464,-11.207848 11.59829,-21.979791 4.635837,-20.529002 -1.70217,0.355678 -2.46701,0.663218 -2.46701,0.663218 0,0 0.63514,-0.994827 1.84257,-1.421372 13.775153,-4.840421 24.366583,14.281917 -4.441954,21.855438 0,0 0.330272,-0.299518 0.430557,-0.568282 z"
     id="path3"
     style="stroke-width:1.33713" />
  <path
     fill="#ea2d2e"
     d="m 75.506425,6.5061082 c 0,0 11.947283,11.9526308 -11.333538,30.3288488 -18.66905,14.744565 -4.257432,23.149782 -0.008,32.757083 C 53.267231,59.758764 45.27385,51.102165 50.635753,43.047277 58.510129,31.224347 80.325452,25.489384 75.506425,6.5061082 Z"
     id="path4"
     style="stroke-width:1.33713" />
  <path
     fill="#0074bd"
     d="m 53.142877,121.13317 c 20.704166,1.32376 52.507873,-0.73676 53.260683,-10.53394 0,0 -1.44678,3.71322 -17.113968,6.66026 -17.674223,3.32679 -39.476176,2.94036 -52.403577,0.80629 0,0 2.647523,2.1929 16.256862,3.06739 z"
     id="path5"
     style="stroke-width:1.33713" />
</svg>
