<?xml version="1.0" encoding="UTF-8" standalone="no"?>
<svg
   height="1000"
   overflow="scroll"
   width="1000"
   version="1.1"
   id="svg5"
   sodipodi:docname="latex.svg"
   inkscape:version="1.4 (e7c3feb100, 2024-10-09)"
   xmlns:inkscape="http://www.inkscape.org/namespaces/inkscape"
   xmlns:sodipodi="http://sodipodi.sourceforge.net/DTD/sodipodi-0.dtd"
   xmlns="http://www.w3.org/2000/svg"
   xmlns:svg="http://www.w3.org/2000/svg">
  <defs
     id="defs5" />
  <sodipodi:namedview
     id="namedview5"
     pagecolor="#ffffff"
     bordercolor="#000000"
     borderopacity="0.25"
     inkscape:showpageshadow="2"
     inkscape:pageopacity="0.0"
     inkscape:pagecheckerboard="0"
     inkscape:deskcolor="#d1d1d1"
     inkscape:zoom="0.39804218"
     inkscape:cx="67.832007"
     inkscape:cy="400.7113"
     inkscape:window-width="2560"
     inkscape:window-height="1009"
     inkscape:window-x="1080"
     inkscape:window-y="464"
     inkscape:window-maximized="1"
     inkscape:current-layer="svg5" />
  <path
     d="m 231.16181,491.92331 h -9.6151 c -3.84604,39.22961 -9.23049,86.92051 -76.9208,86.92051 h -31.15292 c -18.076395,0 -18.845605,-2.69223 -18.845605,-15.38416 V 359.23494 c 0,-13.07654 0,-18.46099 36.152785,-18.46099 h 12.69193 v -11.53812 c -13.84574,1.15381 -48.460105,1.15381 -64.228872,1.15381 -14.999556,0 -44.998667,0 -58.075203,-1.15381 v 11.53812 h 8.845892 c 29.614507,0 30.383715,4.23064 30.383715,18.07638 v 201.9171 c 0,13.84574 -0.769208,18.07639 -30.383715,18.07639 h -8.845892 v 11.92272 H 220.7775 Z"
     id="path1"
     style="fill:#245d2a;fill-opacity:1;stroke-width:38.4604" />
  <path
     d="m 224.62354,328.85122 c -1.53841,-4.61525 -2.30762,-6.15366 -7.30747,-6.15366 -4.99985,0 -6.15367,1.53841 -7.69208,6.15366 l -61.92125,156.91843 c -2.69222,6.53827 -7.30747,18.46099 -31.15292,18.46099 v 9.6151 h 59.61362 v -9.6151 c -11.92272,0 -19.2302,-5.38445 -19.2302,-13.07653 0,-1.92302 0.3846,-2.69223 1.15381,-5.38446 0,0 13.07654,-33.07594 13.07654,-33.07594 h 76.15159 l 15.38416,39.2296 c 0.76921,1.53842 1.53841,3.46144 1.53841,4.61525 0,7.69208 -14.61495,7.69208 -21.92242,7.69208 v 9.6151 h 75.76698 v -9.6151 h -5.38445 c -18.07639,0 -19.99941,-2.69223 -22.69164,-10.38431 z m -15.38416,27.30688 34.22976,86.92051 h -68.45951 z"
     id="path2"
     style="fill:#245d2a;fill-opacity:1;stroke-width:38.4604" />
  <path
     d="M 532.69134,331.54345 H 298.46751 c 0,0 -6.92287,86.15129 -6.92287,86.15129 h 9.23049 c 5.38446,-61.92124 11.15352,-74.61317 69.22872,-74.61317 6.92287,0 16.92258,0 20.76862,0.76921 8.07668,1.53841 8.07668,5.76906 8.07668,14.61495 v 201.9171 c 0,13.07653 0,18.46099 -40.38342,18.46099 h -15.38416 v 11.92272 c 15.76877,-1.15381 54.61377,-1.15381 72.30555,-1.15381 17.69179,0 57.306,0 73.07476,1.15381 v -11.92272 h -15.38416 c -40.38342,0 -40.38342,-5.38446 -40.38342,-18.46099 v -201.9171 c 0,-7.69208 0,-13.07654 6.92288,-14.61495 4.23064,-0.76921 14.61495,-0.76921 21.92242,-0.76921 57.6906,0 63.45966,12.69193 68.84412,74.61317 h 9.6151 c 0,0 -7.30749,-86.15129 -7.30748,-86.15129 z"
     id="path3"
     style="fill:#245d2a;fill-opacity:1;stroke-width:38.4604" />
  <path
     d="m 738.83908,578.45921 h -9.6151 c -9.6151,58.84441 -18.46099,86.92051 -84.22827,86.92051 h -50.76773 c -18.07639,0 -18.84559,-2.69223 -18.84559,-15.38416 V 547.69089 h 34.22975 c 37.30659,0 41.53723,12.30733 41.53723,44.99867 h 9.6151 V 491.15411 h -9.6151 c 0,32.69134 -4.23064,44.61406 -41.53723,44.61406 h -34.22975 v -91.92035 c 0,-12.69194 0.7692,-15.38416 18.84559,-15.38416 h 49.22931 c 58.84441,0 68.84412,21.15322 74.99778,74.61317 h 9.6151 L 717.30126,416.92554 H 501.92302 v 11.53812 h 8.84589 c 29.61451,0 30.38372,4.23064 30.38372,18.07638 v 200.76329 c 0,13.84574 -0.76921,18.07639 -30.38372,18.07639 h -8.84589 v 11.92272 h 220.7627 z"
     id="path4"
     style="fill:#245d2a;fill-opacity:1;stroke-width:38.4604" />
  <path
     d="m 854.60489,442.694 52.69074,-76.9208 c 8.07669,-12.30732 21.15322,-24.61465 55.38298,-24.99925 v -11.53812 h -91.53575 v 11.53812 c 15.38415,0.3846 23.84544,8.84589 23.84544,17.69178 0,3.84604 -0.7692,4.61525 -3.46143,8.84589 0,0 -43.84486,64.61347 -43.84486,64.61347 L 798.4527,358.08112 c -0.76921,-1.15381 -2.69223,-4.23064 -2.69223,-5.76906 0,-4.61524 8.46129,-11.15351 24.61466,-11.53811 v -11.53812 c -13.07655,1.15381 -41.15264,1.15381 -55.76758,1.15381 -11.92272,0 -35.76817,-0.38461 -49.99852,-1.15381 v 11.53812 h 7.30748 c 21.15322,0 28.46069,2.69222 35.76817,13.46113 0,0 70.38253,106.53531 70.38253,106.53531 l -62.69045,92.68956 c -5.38446,7.69208 -16.92258,25.38387 -55.38298,25.38387 v 11.92272 h 91.53575 v -11.92272 c -17.69178,-0.38461 -24.23005,-10.76891 -24.23005,-17.69179 0,-3.46143 1.15381,-4.99985 3.84604,-9.23049 l 54.22917,-80.38224 60.76743,91.53575 c 0.7692,1.53842 1.92302,3.07684 1.92302,4.23065 0,4.61525 -8.46129,11.15351 -24.99927,11.53812 v 11.92272 c 13.46114,-1.15381 41.53724,-1.15381 55.76758,-1.15381 16.15336,0 33.84515,0.3846 49.99852,1.15381 v -11.92272 h -7.30748 c -19.99941,0 -28.07609,-1.92302 -36.15278,-13.84575 0,0 -80.76683,-122.30407 -80.76682,-122.30407 z"
     id="path5"
     style="fill:#245d2a;fill-opacity:1;stroke-width:38.4604" />
</svg>
