<?xml version="1.0" encoding="UTF-8" standalone="no"?>
<!-- Created with Inkscape (http://www.inkscape.org/) -->

<svg
   version="1.1"
   width="100"
   height="100"
   id="svg3055"
   inkscape:version="1.4 (e7c3feb100, 2024-10-09)"
   sodipodi:docname="maven.svg"
   xmlns:inkscape="http://www.inkscape.org/namespaces/inkscape"
   xmlns:sodipodi="http://sodipodi.sourceforge.net/DTD/sodipodi-0.dtd"
   xmlns:xlink="http://www.w3.org/1999/xlink"
   xmlns="http://www.w3.org/2000/svg"
   xmlns:svg="http://www.w3.org/2000/svg"
   xmlns:rdf="http://www.w3.org/1999/02/22-rdf-syntax-ns#"
   xmlns:cc="http://creativecommons.org/ns#"
   xmlns:dc="http://purl.org/dc/elements/1.1/">
  <sodipodi:namedview
     pagecolor="#ffffff"
     bordercolor="#666666"
     borderopacity="1"
     objecttolerance="10"
     gridtolerance="10"
     guidetolerance="10"
     inkscape:pageopacity="0"
     inkscape:pageshadow="2"
     inkscape:window-width="2560"
     inkscape:window-height="1009"
     id="namedview188"
     showgrid="false"
     inkscape:zoom="7.2941177"
     inkscape:cx="55.387097"
     inkscape:cy="50.794355"
     inkscape:window-x="1080"
     inkscape:window-y="464"
     inkscape:window-maximized="1"
     inkscape:current-layer="svg3055"
     inkscape:showpageshadow="2"
     inkscape:pagecheckerboard="0"
     inkscape:deskcolor="#d1d1d1" />
  <metadata
     id="metadata3061">
    <rdf:RDF>
      <cc:Work
         rdf:about="">
        <dc:format>image/svg+xml</dc:format>
        <dc:type
           rdf:resource="http://purl.org/dc/dcmitype/StillImage" />
      </cc:Work>
    </rdf:RDF>
  </metadata>
  <defs
     id="defs3059">
    <linearGradient
       x1="0"
       y1="0"
       x2="1"
       y2="0"
       id="linearGradient12648"
       xlink:href="#linearGradient11392"
       gradientUnits="userSpaceOnUse"
       gradientTransform="translate(-44.21456,-9.8500092)" />
    <linearGradient
       x1="-7708.7969"
       y1="-803.36011"
       x2="-7633.1528"
       y2="-714.90741"
       id="linearGradient5344"
       xlink:href="#SVGID_1_"
       gradientUnits="userSpaceOnUse"
       gradientTransform="matrix(0.59488567,-1.2757806,1.2757806,0.59488567,4898.4395,-9255.4812)" />
    <linearGradient
       x1="-8268.6387"
       y1="-813.12323"
       x2="-7728.9585"
       y2="-813.12323"
       id="linearGradient5346"
       xlink:href="#SVGID_2_"
       gradientUnits="userSpaceOnUse"
       gradientTransform="matrix(0.59488567,-1.2757806,1.2757806,0.59488567,4898.4395,-9255.4812)" />
    <linearGradient
       x1="-8203.4922"
       y1="-758.99402"
       x2="-7881.895"
       y2="-758.99402"
       id="linearGradient5348"
       xlink:href="#SVGID_3_"
       gradientUnits="userSpaceOnUse"
       gradientTransform="matrix(0.59488567,-1.2757806,1.2757806,0.59488567,4898.4395,-9255.4812)" />
    <linearGradient
       x1="-8238.3281"
       y1="-818.15222"
       x2="-7698.647"
       y2="-818.15222"
       id="linearGradient5350"
       xlink:href="#SVGID_4_"
       gradientUnits="userSpaceOnUse"
       gradientTransform="matrix(0.59488567,-1.2757806,1.2757806,0.59488567,4898.4395,-9255.4812)" />
    <linearGradient
       x1="-8198.9678"
       y1="-810.85059"
       x2="-7915.3501"
       y2="-810.85059"
       id="linearGradient5352"
       xlink:href="#SVGID_5_"
       gradientUnits="userSpaceOnUse"
       gradientTransform="matrix(0.59488567,-1.2757806,1.2757806,0.59488567,4898.4395,-9255.4812)" />
    <linearGradient
       x1="-8238.3281"
       y1="-762.29712"
       x2="-7698.647"
       y2="-762.29712"
       id="linearGradient5354"
       xlink:href="#SVGID_6_"
       gradientUnits="userSpaceOnUse"
       gradientTransform="matrix(0.59488567,-1.2757806,1.2757806,0.59488567,4898.4395,-9255.4812)" />
    <linearGradient
       x1="-8271.8057"
       y1="-765.07068"
       x2="-7732.125"
       y2="-765.07068"
       id="linearGradient5356"
       xlink:href="#SVGID_7_"
       gradientUnits="userSpaceOnUse"
       gradientTransform="matrix(0.59488567,-1.2757806,1.2757806,0.59488567,4898.4395,-9255.4812)" />
    <linearGradient
       x1="-8238.3281"
       y1="-745.68481"
       x2="-7698.647"
       y2="-745.68481"
       id="linearGradient5358"
       xlink:href="#SVGID_8_"
       gradientUnits="userSpaceOnUse"
       gradientTransform="matrix(0.4226,-0.9063,0.9063,0.4226,4226.9761,-6584.5938)" />
    <linearGradient
       x1="-8238.3281"
       y1="-747.58557"
       x2="-7698.647"
       y2="-747.58557"
       id="linearGradient5360"
       xlink:href="#SVGID_9_"
       gradientUnits="userSpaceOnUse"
       gradientTransform="matrix(0.4226,-0.9063,0.9063,0.4226,4226.9761,-6584.5938)" />
    <linearGradient
       x1="-7935.1431"
       y1="-747.9668"
       x2="-7815.856"
       y2="-747.9668"
       id="linearGradient5362"
       xlink:href="#SVGID_10_"
       gradientUnits="userSpaceOnUse"
       gradientTransform="matrix(0.4226,-0.9063,0.9063,0.4226,4226.9761,-6584.5938)" />
    <linearGradient
       x1="-7708.7969"
       y1="-803.36011"
       x2="-7633.1528"
       y2="-714.90741"
       id="linearGradient7396"
       xlink:href="#SVGID_1_"
       gradientUnits="userSpaceOnUse"
       gradientTransform="matrix(0.59488567,-1.2757806,1.2757806,0.59488567,4940.5719,-10104.027)" />
    <linearGradient
       x1="-8268.6387"
       y1="-813.12323"
       x2="-7728.9585"
       y2="-813.12323"
       id="linearGradient7398"
       xlink:href="#SVGID_2_"
       gradientUnits="userSpaceOnUse"
       gradientTransform="matrix(0.59488567,-1.2757806,1.2757806,0.59488567,4940.5719,-10104.027)" />
    <linearGradient
       x1="-8203.4922"
       y1="-758.99402"
       x2="-7881.895"
       y2="-758.99402"
       id="linearGradient7400"
       xlink:href="#SVGID_3_"
       gradientUnits="userSpaceOnUse"
       gradientTransform="matrix(0.59488567,-1.2757806,1.2757806,0.59488567,4940.5719,-10104.027)" />
    <linearGradient
       x1="-8238.3281"
       y1="-818.15222"
       x2="-7698.647"
       y2="-818.15222"
       id="linearGradient7402"
       xlink:href="#SVGID_4_"
       gradientUnits="userSpaceOnUse"
       gradientTransform="matrix(0.59488567,-1.2757806,1.2757806,0.59488567,4940.5719,-10104.027)" />
    <linearGradient
       x1="-8198.9678"
       y1="-810.85059"
       x2="-7915.3501"
       y2="-810.85059"
       id="linearGradient7404"
       xlink:href="#SVGID_5_"
       gradientUnits="userSpaceOnUse"
       gradientTransform="matrix(0.59488567,-1.2757806,1.2757806,0.59488567,4940.5719,-10104.027)" />
    <linearGradient
       x1="-8238.3281"
       y1="-762.29712"
       x2="-7698.647"
       y2="-762.29712"
       id="linearGradient7406"
       xlink:href="#SVGID_6_"
       gradientUnits="userSpaceOnUse"
       gradientTransform="matrix(0.59488567,-1.2757806,1.2757806,0.59488567,4940.5719,-10104.027)" />
    <linearGradient
       x1="-8271.8057"
       y1="-765.07068"
       x2="-7732.125"
       y2="-765.07068"
       id="linearGradient7408"
       xlink:href="#SVGID_7_"
       gradientUnits="userSpaceOnUse"
       gradientTransform="matrix(0.59488567,-1.2757806,1.2757806,0.59488567,4940.5719,-10104.027)" />
    <linearGradient
       x1="-8238.3281"
       y1="-745.68481"
       x2="-7698.647"
       y2="-745.68481"
       id="linearGradient7410"
       xlink:href="#SVGID_8_"
       gradientUnits="userSpaceOnUse"
       gradientTransform="matrix(0.4226,-0.9063,0.9063,0.4226,4226.9761,-6584.5938)" />
    <linearGradient
       x1="-8238.3281"
       y1="-747.58557"
       x2="-7698.647"
       y2="-747.58557"
       id="linearGradient7412"
       xlink:href="#SVGID_9_"
       gradientUnits="userSpaceOnUse"
       gradientTransform="matrix(0.4226,-0.9063,0.9063,0.4226,4226.9761,-6584.5938)" />
    <linearGradient
       x1="-7935.1431"
       y1="-747.9668"
       x2="-7815.856"
       y2="-747.9668"
       id="linearGradient7414"
       xlink:href="#SVGID_10_"
       gradientUnits="userSpaceOnUse"
       gradientTransform="matrix(0.4226,-0.9063,0.9063,0.4226,4226.9761,-6584.5938)" />
  </defs>
  <text
     x="199.61313"
     y="196.18768"
     id="text11870"
     xml:space="preserve"
     style="font-style:italic;font-variant:normal;font-weight:bold;font-stretch:normal;font-size:14px;line-height:0%;font-family:'Alte Haas Grotesk';-inkscape-font-specification:'Sans Italic';letter-spacing:0px;word-spacing:0px;fill:url(#linearGradient12648);fill-opacity:1;stroke:none"><tspan
       x="199.61313"
       y="196.18768"
       id="tspan11872"
       style="fill:url(#linearGradient12648);fill-opacity:1" /></text>
  <g
     id="g8927">
    <g
       transform="matrix(0.09561334,-0.07017507,0.07017507,0.09561334,132.73733,36.368381)"
       id="g7248">
      <linearGradient
         x1="-7708.7969"
         y1="-803.36011"
         x2="-7633.1528"
         y2="-714.90741"
         id="linearGradient7250"
         gradientUnits="userSpaceOnUse"
         gradientTransform="matrix(0.4226,-0.9063,0.9063,0.4226,4226.9761,-6584.5938)">
        <stop
           id="stop7252"
           style="stop-color:#f69923;stop-opacity:1"
           offset="0" />
        <stop
           id="stop7254"
           style="stop-color:#f79a23;stop-opacity:1"
           offset="0.3123" />
        <stop
           id="stop7256"
           style="stop-color:#e97826;stop-opacity:1"
           offset="0.83829999" />
      </linearGradient>
      <path
         d="m -633.66765,-807.43372 c -11.82451,7.0384 -31.53203,26.74591 -54.89952,55.32182 l 21.53751,40.68196 c 15.06217,-21.67828 30.54666,-41.10427 46.03115,-57.7149 1.12614,-1.2669 1.82998,-1.97074 1.82998,-1.97074 -0.56308,0.70384 -1.26692,1.2669 -1.82998,1.97074 -5.06766,5.48996 -20.2706,23.22673 -43.21579,58.55951 22.10058,-1.12615 56.02567,-5.63073 83.75697,-10.41684 8.30532,-46.17191 -8.02377,-67.2871 -8.02377,-67.2871 0,0 -20.83368,-33.64356 -45.18655,-19.14445 z"
         id="path7258"
         style="fill:url(#linearGradient7396);stroke-width:1.40768" />
      <path
         d="m 241.1,184.4 c 0.1,0 0.2,0 0.3,-0.1 l -2.2,0.2 c -0.1,0.1 -0.3,0.1 -0.4,0.2 0.8,-0.1 1.6,-0.2 2.3,-0.3 z"
         id="path7260"
         style="fill:none" />
      <path
         d="m 225.5,236.1 c -1.2,0.3 -2.5,0.5 -3.8,0.7 1.3,-0.2 2.6,-0.4 3.8,-0.7 z"
         id="path7262"
         style="fill:none" />
      <path
         d="m 119.3,352.2 c 0.2,-0.4 0.3,-0.9 0.5,-1.3 3.4,-8.9 6.7,-17.5 10,-26 3.7,-9.4 7.4,-18.6 11,-27.5 3.8,-9.3 7.6,-18.4 11.3,-27.1 3.9,-9.2 7.7,-18 11.5,-26.5 3.1,-6.9 6.1,-13.6 9.1,-20.1 1,-2.2 2,-4.3 3,-6.4 2,-4.2 3.9,-8.3 5.8,-12.3 1.8,-3.7 3.5,-7.3 5.2,-10.9 0.6,-1.2 1.2,-2.4 1.7,-3.5 0.1,-0.2 0.2,-0.4 0.3,-0.6 l -1.9,0.2 -1.5,-2.9 c -0.1,0.3 -0.3,0.6 -0.4,0.9 -2.7,5.3 -5.4,10.7 -8,16.2 -1.5,3.1 -3,6.3 -4.6,9.5 -4.2,8.8 -8.3,17.6 -12.3,26.6 -4.1,9 -8.1,18.1 -12,27.1 -3.9,8.9 -7.6,17.8 -11.3,26.7 -3.7,8.9 -7.3,17.7 -10.8,26.5 -3.7,9.2 -7.3,18.3 -10.7,27.3 -0.8,2 -1.6,4.1 -2.3,6.1 -2.8,7.3 -5.5,14.4 -8.1,21.5 l 2.4,4.7 2.1,-0.2 c 0.1,-0.2 0.2,-0.4 0.2,-0.6 3.1,-9.5 6.5,-18.6 9.8,-27.4 z"
         id="path7264"
         style="fill:none" />
      <path
         d="M 220.7,236.9 Z"
         id="path7266"
         style="fill:none" />
      <path
         d="m 215.6,262.2 c -2,0.4 -4,0.7 -6,1 0,0 0,0 0,0 1,-0.1 2.1,-0.3 3.1,-0.5 1,-0.1 2,-0.3 2.9,-0.5 z"
         id="path7268"
         style="fill:#be202e" />
      <path
         d="m 215.6,262.2 c -2,0.4 -4,0.7 -6,1 0,0 0,0 0,0 1,-0.1 2.1,-0.3 3.1,-0.5 1,-0.1 2,-0.3 2.9,-0.5 z"
         id="path7270"
         style="opacity:0.35;fill:#be202e" />
      <path
         d="m 220.8,236.9 c 0,0 0,0 0,0 -0.1,0 -0.1,0 0,0 0.3,0 0.6,-0.1 0.9,-0.1 1.3,-0.2 2.6,-0.4 3.8,-0.7 -1.5,0.3 -3.1,0.5 -4.7,0.8 z"
         id="path7272"
         style="fill:#be202e" />
      <path
         d="m 220.8,236.9 c 0,0 0,0 0,0 -0.1,0 -0.1,0 0,0 0.3,0 0.6,-0.1 0.9,-0.1 1.3,-0.2 2.6,-0.4 3.8,-0.7 -1.5,0.3 -3.1,0.5 -4.7,0.8 z"
         id="path7274"
         style="opacity:0.35;fill:#be202e" />
      <linearGradient
         x1="-8268.6387"
         y1="-813.12323"
         x2="-7728.9585"
         y2="-813.12323"
         id="linearGradient7276"
         gradientUnits="userSpaceOnUse"
         gradientTransform="matrix(0.4226,-0.9063,0.9063,0.4226,4226.9761,-6584.5938)">
        <stop
           id="stop7278"
           style="stop-color:#9e2064;stop-opacity:1"
           offset="0.3233" />
        <stop
           id="stop7280"
           style="stop-color:#c92037;stop-opacity:1"
           offset="0.63020003" />
        <stop
           id="stop7282"
           style="stop-color:#cd2335;stop-opacity:1"
           offset="0.75139999" />
        <stop
           id="stop7284"
           style="stop-color:#e97826;stop-opacity:1"
           offset="1" />
      </linearGradient>
      <path
         d="m -730.65681,-606.41699 c 6.6161,-12.24683 13.23219,-24.21211 19.8483,-35.89585 6.89762,-12.10605 13.93602,-23.7898 21.11519,-35.192 0.42231,-0.70385 0.84461,-1.40769 1.26692,-1.97076 7.0384,-11.12067 14.0768,-21.81905 21.25597,-32.09511 l -21.53752,-40.54119 c -1.54843,1.97075 -3.23766,3.9415 -4.92687,6.05303 -6.1938,7.74223 -12.66912,16.04755 -19.28522,24.91593 -7.46071,9.99453 -15.06218,20.55213 -22.94519,31.67282 -7.17916,10.27605 -14.49911,21.11519 -21.81904,32.23586 -6.1938,9.57224 -12.38759,19.28523 -18.58139,29.27976 -0.28153,0.4223 -0.42229,0.70383 -0.70384,1.12614 l 28.01284,55.32183 c 6.1938,-11.68374 12.24683,-23.36748 18.29985,-34.91046 z"
         id="path7286"
         style="fill:url(#linearGradient7398);stroke-width:1.40768" />
      <linearGradient
         x1="-8203.4922"
         y1="-758.99402"
         x2="-7881.895"
         y2="-758.99402"
         id="linearGradient7288"
         gradientUnits="userSpaceOnUse"
         gradientTransform="matrix(0.4226,-0.9063,0.9063,0.4226,4226.9761,-6584.5938)">
        <stop
           id="stop7290"
           style="stop-color:#282662;stop-opacity:1"
           offset="0" />
        <stop
           id="stop7292"
           style="stop-color:#662e8d;stop-opacity:1"
           offset="0.0954839" />
        <stop
           id="stop7294"
           style="stop-color:#9f2064;stop-opacity:1"
           offset="0.78820002" />
        <stop
           id="stop7296"
           style="stop-color:#cd2032;stop-opacity:1"
           offset="0.94870001" />
      </linearGradient>
      <path
         d="m -858.33341,-294.33428 c -3.65998,10.1353 -7.4607,20.55213 -11.12068,31.2505 0,0.14077 -0.14076,0.28154 -0.14076,0.4223 -0.56308,1.54845 -1.12615,2.95613 -1.54845,4.50458 -2.53382,7.17917 -4.64535,13.6545 -9.71299,28.29438 8.30531,3.80073 14.92141,13.65449 21.11519,24.91594 -0.70384,-11.68375 -5.48995,-22.66365 -14.63986,-31.10974 40.68195,1.82998 75.87396,-8.44608 93.89227,-38.28891 1.54845,-2.67458 3.09689,-5.48994 4.50458,-8.44607 -8.30532,10.41683 -18.44062,14.92141 -37.72584,13.79526 0,0 -0.14076,0 -0.14076,0 0,0 0.14076,0 0.14076,0 28.29438,-12.66912 42.51195,-24.91593 55.0403,-45.04577 2.95614,-4.78611 5.91226,-9.99453 8.86839,-15.76601 -24.77517,25.47902 -53.49185,32.65818 -83.75697,27.16823 l -22.66366,2.53382 c -0.70384,1.97075 -1.40768,3.80074 -2.11152,5.77149 z"
         id="path7298"
         style="fill:url(#linearGradient7400);stroke-width:1.40768" />
      <linearGradient
         x1="-8238.3281"
         y1="-818.15222"
         x2="-7698.647"
         y2="-818.15222"
         id="linearGradient7300"
         gradientUnits="userSpaceOnUse"
         gradientTransform="matrix(0.4226,-0.9063,0.9063,0.4226,4226.9761,-6584.5938)">
        <stop
           id="stop7302"
           style="stop-color:#9e2064;stop-opacity:1"
           offset="0.3233" />
        <stop
           id="stop7304"
           style="stop-color:#c92037;stop-opacity:1"
           offset="0.63020003" />
        <stop
           id="stop7306"
           style="stop-color:#cd2335;stop-opacity:1"
           offset="0.75139999" />
        <stop
           id="stop7308"
           style="stop-color:#e97826;stop-opacity:1"
           offset="1" />
      </linearGradient>
      <path
         d="m -847.77581,-345.15153 c 4.92688,-12.66914 9.99453,-25.47902 15.06218,-38.42968 4.92688,-12.38759 9.99453,-24.77518 15.20295,-37.30353 5.20842,-12.52835 10.55759,-25.0567 15.90678,-37.58506 5.48995,-12.80988 11.12067,-25.47902 16.89217,-38.14814 5.63072,-12.52835 11.54297,-25.05671 17.31447,-37.44429 2.11151,-4.50458 4.22303,-8.86838 6.47532,-13.37296 3.65998,-7.60148 7.4607,-15.20294 11.26144,-22.80442 0.14077,-0.42231 0.42231,-0.84461 0.56308,-1.26692 l -27.7313,-55.18106 c -0.42231,0.70384 -0.84461,1.54845 -1.40768,2.25229 -6.47533,10.69837 -13.09143,21.5375 -19.42599,32.65819 -6.47533,11.26143 -12.80989,22.66364 -19.00369,34.34739 -5.20842,9.85376 -10.27606,19.70752 -15.34371,29.70205 -0.98538,1.97075 -1.97075,4.08227 -2.95613,6.05302 -6.05303,12.52836 -11.68375,24.77518 -16.61062,36.45893 -5.63072,13.23219 -10.55761,25.90132 -14.92141,37.8666 -2.81537,7.88301 -5.48996,15.48447 -7.88301,22.80442 -1.97076,6.19379 -3.80074,12.52835 -5.63072,18.72215 -4.22305,14.63987 -7.74225,29.27974 -10.69838,43.91961 l 28.15361,55.60338 c 3.65996,-9.99454 7.60147,-19.98906 11.40221,-30.26512 1.12615,-2.81537 2.25228,-5.63073 3.37843,-8.58685 z"
         id="path7310"
         style="fill:url(#linearGradient7402);stroke-width:1.40768" />
      <linearGradient
         x1="-8198.9678"
         y1="-810.85059"
         x2="-7915.3501"
         y2="-810.85059"
         id="linearGradient7312"
         gradientUnits="userSpaceOnUse"
         gradientTransform="matrix(0.4226,-0.9063,0.9063,0.4226,4226.9761,-6584.5938)">
        <stop
           id="stop7314"
           style="stop-color:#282662;stop-opacity:1"
           offset="0" />
        <stop
           id="stop7316"
           style="stop-color:#662e8d;stop-opacity:1"
           offset="0.0954839" />
        <stop
           id="stop7318"
           style="stop-color:#9f2064;stop-opacity:1"
           offset="0.78820002" />
        <stop
           id="stop7320"
           style="stop-color:#cd2032;stop-opacity:1"
           offset="0.94870001" />
      </linearGradient>
      <path
         d="m -891.13237,-359.93218 c -3.51919,17.73677 -6.05302,35.47354 -7.31993,53.21031 0,0.56307 -0.14077,1.26692 -0.14077,1.82999 -8.72761,-14.0768 -32.37664,-27.87208 -32.23588,-27.7313 16.89217,24.49364 29.70206,48.70573 31.53204,72.49553 -9.00915,1.82999 -21.39674,-0.8446 -35.61431,-6.05302 14.92141,13.65449 26.04209,17.45523 30.4059,18.4406 -13.6545,0.84461 -27.87207,10.27607 -42.23041,21.11521 20.97444,-8.58685 38.00736,-11.96528 50.11342,-9.14993 -19.28522,54.47724 -38.57044,114.72595 -57.85566,178.634631 5.91226,-1.689211 9.43145,-5.771483 11.40221,-11.120671 3.37843,-11.542972 26.32362,-87.55771 62.07869,-187.36225 0.98539,-2.81535 2.11153,-5.63072 3.0969,-8.58685 0.28154,-0.8446 0.56307,-1.54845 0.84461,-2.39305 3.80074,-10.41683 7.74224,-21.1152 11.82451,-32.09511 0.98538,-2.53383 1.82999,-4.92688 2.81537,-7.46071 0,0 0,-0.14076 0,-0.14076 l -28.15361,-55.60338 c -0.28153,0.70384 -0.4223,1.26692 -0.56308,1.97076 z"
         id="path7322"
         style="fill:url(#linearGradient7404);stroke-width:1.40768" />
      <linearGradient
         x1="-8238.3281"
         y1="-762.29712"
         x2="-7698.647"
         y2="-762.29712"
         id="linearGradient7324"
         gradientUnits="userSpaceOnUse"
         gradientTransform="matrix(0.4226,-0.9063,0.9063,0.4226,4226.9761,-6584.5938)">
        <stop
           id="stop7326"
           style="stop-color:#9e2064;stop-opacity:1"
           offset="0.3233" />
        <stop
           id="stop7328"
           style="stop-color:#c92037;stop-opacity:1"
           offset="0.63020003" />
        <stop
           id="stop7330"
           style="stop-color:#cd2335;stop-opacity:1"
           offset="0.75139999" />
        <stop
           id="stop7332"
           style="stop-color:#e97826;stop-opacity:1"
           offset="1" />
      </linearGradient>
      <path
         d="m -744.45208,-566.72041 c -0.8446,1.68921 -1.54844,3.23766 -2.39305,4.92688 -2.39306,5.06765 -4.92689,10.13529 -7.31995,15.34371 -2.67458,5.63072 -5.34917,11.40222 -8.16454,17.31447 -1.40768,2.95613 -2.81535,5.91225 -4.22304,9.00915 -4.22304,9.14993 -8.44608,18.58138 -12.80989,28.29437 -5.34918,11.9653 -10.69837,24.35287 -16.18832,37.30354 -5.20842,12.24681 -10.55761,25.05671 -15.90679,38.14813 -5.06765,12.52835 -10.27606,25.33824 -15.48448,38.7112 -4.64535,11.82452 -9.29069,24.07134 -14.07681,36.5997 -0.28153,0.56307 -0.42229,1.2669 -0.70384,1.82998 -4.64534,12.38759 -9.43145,25.19747 -14.21757,38.2889 -0.14076,0.28154 -0.28153,0.56307 -0.28153,0.84461 l 22.66366,-2.53382 c -0.42231,-0.14078 -0.84461,-0.14078 -1.40769,-0.28154 27.16823,-3.37843 63.20484,-23.64903 86.43157,-48.70574 10.69837,-11.54297 20.41137,-25.0567 29.42052,-40.9635 6.75687,-11.82451 12.95065,-24.91593 19.00368,-39.55581 5.20842,-12.66912 10.27607,-26.46438 15.06218,-41.38579 -6.1938,3.23766 -13.37297,5.63072 -21.25597,7.31993 -1.40769,0.28153 -2.81536,0.56308 -4.22304,0.84461 -1.40768,0.28153 -2.81537,0.42231 -4.36382,0.70384 v 0 0 c 0,0 0,0 0,0 25.33825,-9.71299 41.24504,-28.43514 52.78801,-51.52109 -6.61609,4.50457 -17.45523,10.41683 -30.40588,13.37295 -1.68922,0.42231 -3.51921,0.70384 -5.34919,0.98538 -0.42231,0 -0.84461,0.14077 -1.40768,0.14077 v 0 0 c 0,0 0,0 0,0 0,0 0,0 0,0 v 0 c 8.72761,-3.65997 16.18832,-7.74224 22.66365,-12.66912 1.40768,-0.98538 2.67459,-2.11153 3.94151,-3.23767 1.97074,-1.68921 3.80073,-3.5192 5.63072,-5.34918 1.12615,-1.26692 2.25229,-2.39306 3.37843,-3.65998 2.53383,-2.95613 4.92688,-6.19379 7.0384,-9.71299 0.70384,-1.12615 1.40768,-2.11152 1.97075,-3.23766 0.84461,-1.68921 1.68922,-3.23766 2.39306,-4.78611 3.5192,-7.0384 6.33456,-13.37296 8.58685,-19.00368 1.12614,-2.81537 2.11151,-5.34919 2.95612,-7.74225 0.28154,-0.98537 0.70384,-1.82999 0.98539,-2.81536 0.8446,-2.67459 1.68921,-5.06765 2.25229,-7.17917 0.8446,-3.0969 1.40767,-5.63072 1.68921,-7.4607 v 0 0 c -0.84461,0.70383 -1.82999,1.40767 -2.95613,1.97075 -7.60148,4.50458 -20.6929,8.72761 -31.25051,10.69837 l 20.83368,-2.25229 -20.83368,2.25229 c -0.14076,0 -0.28153,0 -0.42229,0.14077 -0.98539,0.14076 -2.11153,0.28153 -3.23767,0.56307 0.14077,-0.14077 0.4223,-0.14077 0.56307,-0.28154 l -71.22862,7.74224 c 0.14077,0.56308 0,0.84461 -0.14077,0.98538 z"
         id="path7334"
         style="fill:url(#linearGradient7406);stroke-width:1.40768" />
      <linearGradient
         x1="-8271.8057"
         y1="-765.07068"
         x2="-7732.125"
         y2="-765.07068"
         id="linearGradient7336"
         gradientUnits="userSpaceOnUse"
         gradientTransform="matrix(0.4226,-0.9063,0.9063,0.4226,4226.9761,-6584.5938)">
        <stop
           id="stop7338"
           style="stop-color:#9e2064;stop-opacity:1"
           offset="0.3233" />
        <stop
           id="stop7340"
           style="stop-color:#c92037;stop-opacity:1"
           offset="0.63020003" />
        <stop
           id="stop7342"
           style="stop-color:#cd2335;stop-opacity:1"
           offset="0.75139999" />
        <stop
           id="stop7344"
           style="stop-color:#e97826;stop-opacity:1"
           offset="1" />
      </linearGradient>
      <path
         d="m -664.2143,-710.58533 c -6.33456,9.71299 -13.2322,20.83366 -20.69291,33.22125 -0.4223,0.70384 -0.8446,1.26691 -1.12614,1.97075 -6.47532,10.83914 -13.23219,22.66365 -20.41136,35.75508 -6.1938,11.26144 -12.66912,23.22672 -19.42599,36.31815 -5.91225,11.26144 -11.82452,23.22672 -18.15908,35.89584 l 71.22863,-7.74223 c 20.6929,-9.57223 29.98359,-18.15907 38.99274,-30.68743 2.39305,-3.37844 4.78611,-7.0384 7.17917,-10.83914 7.31994,-11.40221 14.49911,-23.93057 20.83367,-36.45891 6.19379,-12.10606 11.68375,-24.07134 15.76602,-34.76972 2.67459,-6.89762 4.78611,-13.23218 6.33456,-18.86291 1.26692,-4.92688 2.25229,-9.57223 3.0969,-14.0768 -27.59054,4.64534 -61.51563,9.14992 -83.61621,10.27607 z"
         id="path7346"
         style="fill:url(#linearGradient7408);stroke-width:1.40768" />
      <path
         d="m 212.7,262.8 c -1,0.2 -2,0.3 -3.1,0.5 v 0 c 1,-0.2 2,-0.4 3.1,-0.5 z"
         id="path7348"
         style="fill:#be202e" />
      <path
         d="m 212.7,262.8 c -1,0.2 -2,0.3 -3.1,0.5 v 0 c 1,-0.2 2,-0.4 3.1,-0.5 z"
         id="path7350"
         style="opacity:0.35;fill:#be202e" />
      <linearGradient
         x1="-8238.3281"
         y1="-745.68481"
         x2="-7698.647"
         y2="-745.68481"
         id="linearGradient7352"
         gradientUnits="userSpaceOnUse"
         gradientTransform="matrix(0.4226,-0.9063,0.9063,0.4226,4226.9761,-6584.5938)">
        <stop
           id="stop7354"
           style="stop-color:#9e2064;stop-opacity:1"
           offset="0.3233" />
        <stop
           id="stop7356"
           style="stop-color:#c92037;stop-opacity:1"
           offset="0.63020003" />
        <stop
           id="stop7358"
           style="stop-color:#cd2335;stop-opacity:1"
           offset="0.75139999" />
        <stop
           id="stop7360"
           style="stop-color:#e97826;stop-opacity:1"
           offset="1" />
      </linearGradient>
      <path
         d="m 212.7,262.8 c -1,0.2 -2,0.3 -3.1,0.5 v 0 c 1,-0.2 2,-0.4 3.1,-0.5 z"
         id="path7362"
         style="fill:url(#linearGradient7410)" />
      <path
         d="m 220.7,236.9 c 0.3,0 0.6,-0.1 1,-0.1 -0.3,0 -0.6,0.1 -1,0.1 z"
         id="path7364"
         style="fill:#be202e" />
      <path
         d="m 220.7,236.9 c 0.3,0 0.6,-0.1 1,-0.1 -0.3,0 -0.6,0.1 -1,0.1 z"
         id="path7366"
         style="opacity:0.35;fill:#be202e" />
      <linearGradient
         x1="-8238.3281"
         y1="-747.58557"
         x2="-7698.647"
         y2="-747.58557"
         id="linearGradient7368"
         gradientUnits="userSpaceOnUse"
         gradientTransform="matrix(0.4226,-0.9063,0.9063,0.4226,4226.9761,-6584.5938)">
        <stop
           id="stop7370"
           style="stop-color:#9e2064;stop-opacity:1"
           offset="0.3233" />
        <stop
           id="stop7372"
           style="stop-color:#c92037;stop-opacity:1"
           offset="0.63020003" />
        <stop
           id="stop7374"
           style="stop-color:#cd2335;stop-opacity:1"
           offset="0.75139999" />
        <stop
           id="stop7376"
           style="stop-color:#e97826;stop-opacity:1"
           offset="1" />
      </linearGradient>
      <path
         d="m 220.7,236.9 c 0.3,0 0.6,-0.1 1,-0.1 -0.3,0 -0.6,0.1 -1,0.1 z"
         id="path7378"
         style="fill:url(#linearGradient7412)" />
      <path
         d="M 220.8,236.9 Z"
         id="path7380"
         style="fill:#be202e" />
      <path
         d="M 220.8,236.9 Z"
         id="path7382"
         style="opacity:0.35;fill:#be202e" />
      <linearGradient
         x1="-7935.1431"
         y1="-747.9668"
         x2="-7815.856"
         y2="-747.9668"
         id="linearGradient7384"
         gradientUnits="userSpaceOnUse"
         gradientTransform="matrix(0.4226,-0.9063,0.9063,0.4226,4226.9761,-6584.5938)">
        <stop
           id="stop7386"
           style="stop-color:#9e2064;stop-opacity:1"
           offset="0.3233" />
        <stop
           id="stop7388"
           style="stop-color:#c92037;stop-opacity:1"
           offset="0.63020003" />
        <stop
           id="stop7390"
           style="stop-color:#cd2335;stop-opacity:1"
           offset="0.75139999" />
        <stop
           id="stop7392"
           style="stop-color:#e97826;stop-opacity:1"
           offset="1" />
      </linearGradient>
      <path
         d="M 220.8,236.9 Z"
         id="path7394"
         style="fill:url(#linearGradient7414)" />
    </g>
    <g
       style="font-style:italic;font-variant:normal;font-weight:bold;font-stretch:normal;font-size:100px;line-height:125%;font-family:'Alte Haas Grotesk';-inkscape-font-specification:'Sans Italic';letter-spacing:0px;word-spacing:0px;fill:#000000;fill-opacity:1;stroke:none"
       id="text5492">
      <path
         d="m 161.28828,22.416647 h 7.3 q 1.1,0 2.1,0.1 1,0 1.6,0.4 1,0.7 1,2.6 0.1,1.8 0.4,3.2 0.4,3.3 0.7,6.8 0.3,3.4 0.7,6.8 0.4,2.4 0.6,4.9 0.2,2.5 0.6,4.8 0.1,0.9 0.2,1.9 0.2,1 1.3,1 0.3,-0.2 0.4,-0.2 0.1,-0.1 0.3,-0.3 0.4,-0.5 0.7,-1 0.3,-0.5 0.6,-1.1 0.8,-1.1 1.2,-2.3 0.5,-1.2 1.2,-2.3 2.2,-4.2 4.3,-8.4 2.1,-4.3 4.3,-8.5 0.8,-1.2 1.3,-2.4 0.6,-1.3 1.2,-2.4 0.4,-0.8 0.8,-1.6 0.5,-0.8 1.2,-1.3 0.3,-0.2 1.4,-0.6 0.6,-0.2 1.3,-0.1 0.7,0 1.3,0 h 4.9 q 1.1,0 2,0.1 1,0 1.4,0.5 0.5,0.5 0.1,1.5 -0.3,0.9 -0.6,1.5 -0.8,1.4 -1.6,3 -0.8,1.5 -1.6,2.9 -0.4,0.7 -0.7,1.4 -0.3,0.6 -0.6,1.2 -0.7,1.1 -1.3,2.2 -0.6,1.1 -1.2,2.2 -0.1,0.3 -0.3,0.7 -0.1,0.3 -0.3,0.6 -0.9,1.5 -1.7,3.1 -0.8,1.5 -1.6,3 -1.7,3 -3.3,6.2 -1.6,3.1 -3.4,6.1 -0.8,1.4 -1.5,2.8 -0.6,1.3 -1.4,2.7 -0.3,0.5 -0.5,0.9 -0.2,0.3 -0.5,0.8 -0.6,1.1 -1.2,2.3 -0.5,1.1 -1.2,2.2 -0.7,1.1 -1.3,2.1 -0.6,0.9 -1.7,1.3 -0.9,0.3 -1.8,0.3 -0.9,-0.1 -1.8,-0.1 h -6.5 q -1.1,0 -2.2,0 -1,0 -1.7,-0.4 -0.6,-0.5 -0.8,-1.2 -0.1,-0.8 -0.2,-1.7 -0.3,-1.2 -0.5,-2.5 -0.1,-1.3 -0.3,-2.5 -0.1,-0.4 -0.1,-0.7 0,-0.4 -0.1,-0.9 -0.3,-1.2 -0.4,-2.5 -0.1,-1.3 -0.4,-2.6 -0.1,-0.5 -0.1,-0.9 0,-0.5 -0.1,-1 -0.2,-0.9 -0.3,-1.8 -0.1,-1 -0.3,-1.9 -0.1,-0.3 -0.1,-0.6 0.1,-0.4 0,-0.7 -0.2,-0.9 -0.3,-1.8 -0.1,-0.9 -0.3,-1.9 -0.4,-2.3 -0.7,-4.7 -0.3,-2.5 -0.6,-4.9 -0.6,-2.7 -0.9,-5.4 -0.2,-2.8 -0.7,-5.5 l -0.3,-2.7 q -0.1,-0.3 -0.1,-0.7 0.1,-0.5 0.4,-0.9 0.4,-0.7 1.6,-1 0.5,0 0.7,-0.1 z"
         style="fill:none;stroke:none"
         id="path4321" />
    </g>
    <g
       style="font-style:italic;font-variant:normal;font-weight:bold;font-stretch:normal;font-size:20px;line-height:125%;font-family:'Alte Haas Grotesk';-inkscape-font-specification:'Sans Italic';letter-spacing:0px;word-spacing:0px;fill:#000000;fill-opacity:1;stroke:none"
       id="text9112" />
    <g
       transform="matrix(0.13272567,0.01947468,-0.01947468,0.13272567,170.19741,12.570146)"
       id="g4701">
      <linearGradient
         x1="-7708.7969"
         y1="-803.36011"
         x2="-7633.1528"
         y2="-714.90741"
         id="SVGID_1_"
         gradientUnits="userSpaceOnUse"
         gradientTransform="matrix(0.4226,-0.9063,0.9063,0.4226,4226.9761,-6584.5938)">
        <stop
           id="stop4704"
           style="stop-color:#f69923;stop-opacity:1"
           offset="0" />
        <stop
           id="stop4706"
           style="stop-color:#f79a23;stop-opacity:1"
           offset="0.3123" />
        <stop
           id="stop4708"
           style="stop-color:#e97826;stop-opacity:1"
           offset="0.83829999" />
      </linearGradient>
      <path
         d="m -675.79984,41.11212 c -11.82451,7.0384 -31.53204,26.745929 -54.89952,55.321831 l 21.5375,40.681959 c 15.06218,-21.67828 30.54667,-41.104264 46.03115,-57.714884 1.12614,-1.266917 1.82998,-1.970756 1.82998,-1.970756 -0.56307,0.703839 -1.26691,1.266917 -1.82998,1.970756 -5.06765,5.489949 -20.2706,23.226724 -43.21578,58.559504 22.10058,-1.12615 56.02567,-5.63073 83.75697,-10.41684 8.30532,-46.17192 -8.02378,-67.287119 -8.02378,-67.287119 0,0 -20.83367,-33.643558 -45.18654,-19.144451 z"
         id="path4710"
         style="fill:url(#linearGradient5344);stroke-width:1.40768" />
      <path
         d="m 241.1,184.4 c 0.1,0 0.2,0 0.3,-0.1 l -2.2,0.2 c -0.1,0.1 -0.3,0.1 -0.4,0.2 0.8,-0.1 1.6,-0.2 2.3,-0.3 z"
         id="path4712"
         style="fill:none" />
      <path
         d="m 225.5,236.1 c -1.2,0.3 -2.5,0.5 -3.8,0.7 1.3,-0.2 2.6,-0.4 3.8,-0.7 z"
         id="path4714"
         style="fill:none" />
      <path
         d="m 119.3,352.2 c 0.2,-0.4 0.3,-0.9 0.5,-1.3 3.4,-8.9 6.7,-17.5 10,-26 3.7,-9.4 7.4,-18.6 11,-27.5 3.8,-9.3 7.6,-18.4 11.3,-27.1 3.9,-9.2 7.7,-18 11.5,-26.5 3.1,-6.9 6.1,-13.6 9.1,-20.1 1,-2.2 2,-4.3 3,-6.4 2,-4.2 3.9,-8.3 5.8,-12.3 1.8,-3.7 3.5,-7.3 5.2,-10.9 0.6,-1.2 1.2,-2.4 1.7,-3.5 0.1,-0.2 0.2,-0.4 0.3,-0.6 l -1.9,0.2 -1.5,-2.9 c -0.1,0.3 -0.3,0.6 -0.4,0.9 -2.7,5.3 -5.4,10.7 -8,16.2 -1.5,3.1 -3,6.3 -4.6,9.5 -4.2,8.8 -8.3,17.6 -12.3,26.6 -4.1,9 -8.1,18.1 -12,27.1 -3.9,8.9 -7.6,17.8 -11.3,26.7 -3.7,8.9 -7.3,17.7 -10.8,26.5 -3.7,9.2 -7.3,18.3 -10.7,27.3 -0.8,2 -1.6,4.1 -2.3,6.1 -2.8,7.3 -5.5,14.4 -8.1,21.5 l 2.4,4.7 2.1,-0.2 c 0.1,-0.2 0.2,-0.4 0.2,-0.6 3.1,-9.5 6.5,-18.6 9.8,-27.4 z"
         id="path4716"
         style="fill:none" />
      <path
         d="M 220.7,236.9 Z"
         id="path4718"
         style="fill:none" />
      <path
         d="m 215.6,262.2 c -2,0.4 -4,0.7 -6,1 0,0 0,0 0,0 1,-0.1 2.1,-0.3 3.1,-0.5 1,-0.1 2,-0.3 2.9,-0.5 z"
         id="path4720"
         style="fill:#be202e" />
      <path
         d="m 215.6,262.2 c -2,0.4 -4,0.7 -6,1 0,0 0,0 0,0 1,-0.1 2.1,-0.3 3.1,-0.5 1,-0.1 2,-0.3 2.9,-0.5 z"
         id="path4722"
         style="opacity:0.35;fill:#be202e" />
      <path
         d="m 220.8,236.9 c 0,0 0,0 0,0 -0.1,0 -0.1,0 0,0 0.3,0 0.6,-0.1 0.9,-0.1 1.3,-0.2 2.6,-0.4 3.8,-0.7 -1.5,0.3 -3.1,0.5 -4.7,0.8 z"
         id="path4724"
         style="fill:#be202e" />
      <path
         d="m 220.8,236.9 c 0,0 0,0 0,0 -0.1,0 -0.1,0 0,0 0.3,0 0.6,-0.1 0.9,-0.1 1.3,-0.2 2.6,-0.4 3.8,-0.7 -1.5,0.3 -3.1,0.5 -4.7,0.8 z"
         id="path4726"
         style="opacity:0.35;fill:#be202e" />
      <linearGradient
         x1="-8268.6387"
         y1="-813.12323"
         x2="-7728.9585"
         y2="-813.12323"
         id="SVGID_2_"
         gradientUnits="userSpaceOnUse"
         gradientTransform="matrix(0.4226,-0.9063,0.9063,0.4226,4226.9761,-6584.5938)">
        <stop
           id="stop4729"
           style="stop-color:#9e2064;stop-opacity:1"
           offset="0.3233" />
        <stop
           id="stop4731"
           style="stop-color:#c92037;stop-opacity:1"
           offset="0.63020003" />
        <stop
           id="stop4733"
           style="stop-color:#cd2335;stop-opacity:1"
           offset="0.75139999" />
        <stop
           id="stop4735"
           style="stop-color:#e97826;stop-opacity:1"
           offset="1" />
      </linearGradient>
      <path
         d="m -772.78901,242.12887 c 6.61611,-12.24682 13.2322,-24.2121 19.84829,-35.89584 6.89764,-12.10606 13.93604,-23.7898 21.11521,-35.19201 0.42231,-0.70384 0.84461,-1.40769 1.26691,-1.97075 7.03841,-11.12067 14.07681,-21.81905 21.25598,-32.09512 l -21.53751,-40.541199 c -1.54845,1.970756 -3.23767,3.941509 -4.92689,6.053029 -6.19379,7.74224 -12.66912,16.04755 -19.28521,24.91594 -7.46071,9.99453 -15.06218,20.55214 -22.94519,31.67282 -7.17917,10.27606 -14.49911,21.1152 -21.81905,32.23588 -6.19379,9.57222 -12.38758,19.28521 -18.58138,29.27974 -0.28153,0.42231 -0.4223,0.70384 -0.70384,1.12614 l 28.01284,55.32185 c 6.1938,-11.68375 12.24682,-23.3675 18.29984,-34.91048 z"
         id="path4737"
         style="fill:url(#linearGradient5346);stroke-width:1.40768" />
      <linearGradient
         x1="-8203.4922"
         y1="-758.99402"
         x2="-7881.895"
         y2="-758.99402"
         id="SVGID_3_"
         gradientUnits="userSpaceOnUse"
         gradientTransform="matrix(0.4226,-0.9063,0.9063,0.4226,4226.9761,-6584.5938)">
        <stop
           id="stop4740"
           style="stop-color:#282662;stop-opacity:1"
           offset="0" />
        <stop
           id="stop4742"
           style="stop-color:#662e8d;stop-opacity:1"
           offset="0.0954839" />
        <stop
           id="stop4744"
           style="stop-color:#9f2064;stop-opacity:1"
           offset="0.78820002" />
        <stop
           id="stop4746"
           style="stop-color:#cd2032;stop-opacity:1"
           offset="0.94870001" />
      </linearGradient>
      <path
         d="m -900.46561,554.21159 c -3.65996,10.13529 -7.4607,20.55213 -11.12067,31.25049 0,0.14077 -0.14077,0.28155 -0.14077,0.42231 -0.56307,1.54845 -1.12615,2.95613 -1.54844,4.50457 -2.53383,7.17918 -4.64535,13.65451 -9.71299,28.29438 8.3053,3.80074 14.92141,13.6545 21.11519,24.91594 -0.70383,-11.68375 -5.48995,-22.66365 -14.63987,-31.10973 40.68197,1.82998 75.87397,-8.44608 93.89227,-38.2889 1.54845,-2.67459 3.0969,-5.48996 4.50458,-8.44609 -8.30531,10.41683 -18.44061,14.92141 -37.72583,13.79527 0,0 -0.14076,0 -0.14076,0 0,0 0.14076,0 0.14076,0 28.29438,-12.66912 42.51195,-24.91594 55.0403,-45.04576 2.95612,-4.78613 5.91225,-9.99454 8.86838,-15.76602 -24.77516,25.47901 -53.49185,32.65817 -83.75697,27.16822 l -22.66365,2.53382 c -0.70384,1.97076 -1.40769,3.80074 -2.11153,5.7715 z"
         id="path4748"
         style="fill:url(#linearGradient5348);stroke-width:1.40768" />
      <linearGradient
         x1="-8238.3281"
         y1="-818.15222"
         x2="-7698.647"
         y2="-818.15222"
         id="SVGID_4_"
         gradientUnits="userSpaceOnUse"
         gradientTransform="matrix(0.4226,-0.9063,0.9063,0.4226,4226.9761,-6584.5938)">
        <stop
           id="stop4751"
           style="stop-color:#9e2064;stop-opacity:1"
           offset="0.3233" />
        <stop
           id="stop4753"
           style="stop-color:#c92037;stop-opacity:1"
           offset="0.63020003" />
        <stop
           id="stop4755"
           style="stop-color:#cd2335;stop-opacity:1"
           offset="0.75139999" />
        <stop
           id="stop4757"
           style="stop-color:#e97826;stop-opacity:1"
           offset="1" />
      </linearGradient>
      <path
         d="m -889.908,503.39433 c 4.92688,-12.66912 9.99452,-25.47901 15.06218,-38.42968 4.92688,-12.38757 9.99452,-24.77516 15.20294,-37.30352 5.20842,-12.52835 10.5576,-25.05671 15.90679,-37.58507 5.48995,-12.80988 11.12067,-25.479 16.89217,-38.14813 5.63072,-12.52835 11.54297,-25.05671 17.31446,-37.4443 2.11152,-4.50458 4.22304,-8.86838 6.47533,-13.37296 3.65996,-7.60147 7.4607,-15.20294 11.26144,-22.80442 0.14077,-0.4223 0.42231,-0.84461 0.56307,-1.2669 l -27.73129,-55.18107 c -0.42231,0.70383 -0.84461,1.54845 -1.40769,2.25228 -6.47532,10.69837 -13.09143,21.53751 -19.42599,32.65819 -6.47532,11.26144 -12.80989,22.66365 -19.00368,34.3474 -5.20842,9.85376 -10.27607,19.70752 -15.34371,29.70205 -0.98538,1.97075 -1.97076,4.08227 -2.95613,6.05302 -6.05303,12.52836 -11.68375,24.77517 -16.61063,36.45892 -5.63072,13.2322 -10.5576,25.90132 -14.92141,37.8666 -2.81536,7.88301 -5.48995,15.48448 -7.88301,22.80442 -1.97076,6.19379 -3.80074,12.52835 -5.63072,18.72215 -4.22304,14.63988 -7.74224,29.27975 -10.69837,43.91962 l 28.15361,55.60337 c 3.65996,-9.99452 7.60146,-19.98906 11.4022,-30.26512 1.12615,-2.81537 2.25229,-5.63072 3.37844,-8.58685 z"
         id="path4759"
         style="fill:url(#linearGradient5350);stroke-width:1.40768" />
      <linearGradient
         x1="-8198.9678"
         y1="-810.85059"
         x2="-7915.3501"
         y2="-810.85059"
         id="SVGID_5_"
         gradientUnits="userSpaceOnUse"
         gradientTransform="matrix(0.4226,-0.9063,0.9063,0.4226,4226.9761,-6584.5938)">
        <stop
           id="stop4762"
           style="stop-color:#282662;stop-opacity:1"
           offset="0" />
        <stop
           id="stop4764"
           style="stop-color:#662e8d;stop-opacity:1"
           offset="0.0954839" />
        <stop
           id="stop4766"
           style="stop-color:#9f2064;stop-opacity:1"
           offset="0.78820002" />
        <stop
           id="stop4768"
           style="stop-color:#cd2032;stop-opacity:1"
           offset="0.94870001" />
      </linearGradient>
      <path
         d="m -933.26455,488.61368 c -3.51921,17.73678 -6.05303,35.47354 -7.31994,53.21032 0,0.56308 -0.14077,1.26692 -0.14077,1.82998 -8.72762,-14.0768 -32.37665,-27.87206 -32.23588,-27.7313 16.89217,24.49364 29.70206,48.70574 31.53204,72.49554 -9.00915,1.82998 -21.39674,-0.84461 -35.61431,-6.05303 14.92141,13.6545 26.04208,17.45523 30.4059,18.44061 -13.65451,0.84461 -27.87208,10.27607 -42.23041,21.11521 20.97444,-8.58685 38.00736,-11.96529 50.11342,-9.14993 -19.28523,54.47723 -38.57044,114.72595 -57.85567,178.63463 5.91226,-1.68921 9.43146,-5.77149 11.40222,-11.12067 3.37843,-11.54298 26.32361,-87.55772 62.07869,-187.36224 0.98538,-2.81537 2.11152,-5.63072 3.0969,-8.58686 0.28154,-0.8446 0.56307,-1.54844 0.8446,-2.39305 3.80074,-10.41683 7.74225,-21.11521 11.82452,-32.09511 0.98538,-2.53383 1.82999,-4.92688 2.81536,-7.4607 0,0 0,-0.14078 0,-0.14078 l -28.15361,-55.60337 c -0.28153,0.70385 -0.42229,1.26691 -0.56306,1.97075 z"
         id="path4770"
         style="fill:url(#linearGradient5352);stroke-width:1.40768" />
      <linearGradient
         x1="-8238.3281"
         y1="-762.29712"
         x2="-7698.647"
         y2="-762.29712"
         id="SVGID_6_"
         gradientUnits="userSpaceOnUse"
         gradientTransform="matrix(0.4226,-0.9063,0.9063,0.4226,4226.9761,-6584.5938)">
        <stop
           id="stop4773"
           style="stop-color:#9e2064;stop-opacity:1"
           offset="0.3233" />
        <stop
           id="stop4775"
           style="stop-color:#c92037;stop-opacity:1"
           offset="0.63020003" />
        <stop
           id="stop4777"
           style="stop-color:#cd2335;stop-opacity:1"
           offset="0.75139999" />
        <stop
           id="stop4779"
           style="stop-color:#e97826;stop-opacity:1"
           offset="1" />
      </linearGradient>
      <path
         d="m -786.58427,281.82546 c -0.84461,1.68921 -1.54845,3.23766 -2.39306,4.92688 -2.39305,5.06764 -4.92687,10.13529 -7.31994,15.34372 -2.67459,5.63072 -5.34918,11.4022 -8.16454,17.31445 -1.40768,2.95613 -2.81537,5.91226 -4.22304,9.00916 -4.22305,9.14993 -8.44608,18.58139 -12.8099,28.29438 -5.34917,11.96528 -10.69836,24.35287 -16.18831,37.30352 -5.20842,12.24682 -10.5576,25.05671 -15.90679,38.14814 -5.06765,12.52836 -10.27606,25.33824 -15.48449,38.71121 -4.64534,11.82451 -9.29069,24.07132 -14.0768,36.59968 -0.28153,0.56307 -0.4223,1.26691 -0.70384,1.82999 -4.64535,12.38758 -9.43146,25.19748 -14.21757,38.2889 -0.14077,0.28154 -0.28153,0.56307 -0.28153,0.8446 l 22.66365,-2.53382 c -0.42231,-0.14076 -0.84461,-0.14076 -1.40768,-0.28153 27.16822,-3.37844 63.20484,-23.64903 86.43157,-48.70574 10.69836,-11.54298 20.41135,-25.05671 29.42051,-40.9635 6.75686,-11.82451 12.95066,-24.91594 19.00369,-39.55581 5.20842,-12.66912 10.27606,-26.46439 15.06217,-41.3858 -6.19379,3.23766 -13.37296,5.63072 -21.25597,7.31993 -1.40768,0.28154 -2.81535,0.56308 -4.22304,0.84461 -1.40768,0.28154 -2.81536,0.42231 -4.36381,0.70384 v 0 0 c 0,0 0,0 0,0 25.33824,-9.71299 41.24504,-28.43514 52.78801,-51.52109 -6.61609,4.50458 -17.45523,10.41683 -30.40589,13.37296 -1.68921,0.4223 -3.5192,0.70384 -5.34918,0.98537 -0.42231,0 -0.84461,0.14077 -1.40769,0.14077 v 0 0 c 0,0 0,0 0,0 0,0 0,0 0,0 v 0 c 8.72762,-3.65996 16.18833,-7.74223 22.66366,-12.66912 1.40768,-0.98538 2.67459,-2.11152 3.9415,-3.23767 1.97075,-1.68921 3.80074,-3.51919 5.63072,-5.34918 1.12614,-1.26691 2.25229,-2.39306 3.37843,-3.65996 2.53383,-2.95614 4.92689,-6.1938 7.0384,-9.71301 0.70385,-1.12614 1.40769,-2.11151 1.97076,-3.23766 0.84461,-1.68921 1.68922,-3.23766 2.39306,-4.78611 3.51919,-7.0384 6.33456,-13.37296 8.58685,-19.00368 1.12614,-2.81537 2.11151,-5.34919 2.95613,-7.74225 0.28153,-0.98537 0.70383,-1.82998 0.98537,-2.81535 0.84461,-2.6746 1.68922,-5.06766 2.25229,-7.17917 0.84461,-3.0969 1.40767,-5.63073 1.68922,-7.46071 v 0 0 c -0.84461,0.70384 -1.82999,1.40768 -2.95613,1.97076 -7.60148,4.50457 -20.6929,8.72761 -31.25051,10.69836 l 20.83367,-2.25229 -20.83367,2.25229 c -0.14076,0 -0.28153,0 -0.4223,0.14077 -0.98537,0.14076 -2.11152,0.28154 -3.23766,0.56307 0.14077,-0.14076 0.4223,-0.14076 0.56306,-0.28153 l -71.22861,7.74223 c 0.14076,0.56308 0,0.84462 -0.14077,0.98539 z"
         id="path4781"
         style="fill:url(#linearGradient5354);stroke-width:1.40768" />
      <linearGradient
         x1="-8271.8057"
         y1="-765.07068"
         x2="-7732.125"
         y2="-765.07068"
         id="SVGID_7_"
         gradientUnits="userSpaceOnUse"
         gradientTransform="matrix(0.4226,-0.9063,0.9063,0.4226,4226.9761,-6584.5938)">
        <stop
           id="stop4784"
           style="stop-color:#9e2064;stop-opacity:1"
           offset="0.3233" />
        <stop
           id="stop4786"
           style="stop-color:#c92037;stop-opacity:1"
           offset="0.63020003" />
        <stop
           id="stop4788"
           style="stop-color:#cd2335;stop-opacity:1"
           offset="0.75139999" />
        <stop
           id="stop4790"
           style="stop-color:#e97826;stop-opacity:1"
           offset="1" />
      </linearGradient>
      <path
         d="m -706.34649,137.96053 c -6.33456,9.71299 -13.2322,20.83366 -20.69291,33.22125 -0.4223,0.70384 -0.84461,1.26692 -1.12614,1.97076 -6.47533,10.83914 -13.2322,22.66366 -20.41136,35.75508 -6.1938,11.26143 -12.66913,23.22672 -19.426,36.31815 -5.91225,11.26144 -11.82451,23.22672 -18.15907,35.89585 l 71.22863,-7.74225 c 20.69289,-9.57222 29.98359,-18.15907 38.99273,-30.68743 2.39306,-3.37843 4.78612,-7.0384 7.17917,-10.83914 7.31995,-11.4022 14.49912,-23.93056 20.83368,-36.45891 6.19379,-12.10605 11.68374,-24.07134 15.76602,-34.7697 2.67458,-6.89764 4.78611,-13.2322 6.33456,-18.86292 1.2669,-4.92689 2.25229,-9.57223 3.09689,-14.07681 -27.59053,4.64534 -61.51562,9.14992 -83.6162,10.27607 z"
         id="path4792"
         style="fill:url(#linearGradient5356);stroke-width:1.40768" />
      <path
         d="m 212.7,262.8 c -1,0.2 -2,0.3 -3.1,0.5 v 0 c 1,-0.2 2,-0.4 3.1,-0.5 z"
         id="path4794"
         style="fill:#be202e" />
      <path
         d="m 212.7,262.8 c -1,0.2 -2,0.3 -3.1,0.5 v 0 c 1,-0.2 2,-0.4 3.1,-0.5 z"
         id="path4796"
         style="opacity:0.35;fill:#be202e" />
      <linearGradient
         x1="-8238.3281"
         y1="-745.68481"
         x2="-7698.647"
         y2="-745.68481"
         id="SVGID_8_"
         gradientUnits="userSpaceOnUse"
         gradientTransform="matrix(0.4226,-0.9063,0.9063,0.4226,4226.9761,-6584.5938)">
        <stop
           id="stop4799"
           style="stop-color:#9e2064;stop-opacity:1"
           offset="0.3233" />
        <stop
           id="stop4801"
           style="stop-color:#c92037;stop-opacity:1"
           offset="0.63020003" />
        <stop
           id="stop4803"
           style="stop-color:#cd2335;stop-opacity:1"
           offset="0.75139999" />
        <stop
           id="stop4805"
           style="stop-color:#e97826;stop-opacity:1"
           offset="1" />
      </linearGradient>
      <path
         d="m 212.7,262.8 c -1,0.2 -2,0.3 -3.1,0.5 v 0 c 1,-0.2 2,-0.4 3.1,-0.5 z"
         id="path4807"
         style="fill:url(#linearGradient5358)" />
      <path
         d="m 220.7,236.9 c 0.3,0 0.6,-0.1 1,-0.1 -0.3,0 -0.6,0.1 -1,0.1 z"
         id="path4809"
         style="fill:#be202e" />
      <path
         d="m 220.7,236.9 c 0.3,0 0.6,-0.1 1,-0.1 -0.3,0 -0.6,0.1 -1,0.1 z"
         id="path4811"
         style="opacity:0.35;fill:#be202e" />
      <linearGradient
         x1="-8238.3281"
         y1="-747.58557"
         x2="-7698.647"
         y2="-747.58557"
         id="SVGID_9_"
         gradientUnits="userSpaceOnUse"
         gradientTransform="matrix(0.4226,-0.9063,0.9063,0.4226,4226.9761,-6584.5938)">
        <stop
           id="stop4814"
           style="stop-color:#9e2064;stop-opacity:1"
           offset="0.3233" />
        <stop
           id="stop4816"
           style="stop-color:#c92037;stop-opacity:1"
           offset="0.63020003" />
        <stop
           id="stop4818"
           style="stop-color:#cd2335;stop-opacity:1"
           offset="0.75139999" />
        <stop
           id="stop4820"
           style="stop-color:#e97826;stop-opacity:1"
           offset="1" />
      </linearGradient>
      <path
         d="m 220.7,236.9 c 0.3,0 0.6,-0.1 1,-0.1 -0.3,0 -0.6,0.1 -1,0.1 z"
         id="path4822"
         style="fill:url(#linearGradient5360)" />
      <path
         d="M 220.8,236.9 Z"
         id="path4824"
         style="fill:#be202e" />
      <path
         d="M 220.8,236.9 Z"
         id="path4826"
         style="opacity:0.35;fill:#be202e" />
      <linearGradient
         x1="-7935.1431"
         y1="-747.9668"
         x2="-7815.856"
         y2="-747.9668"
         id="SVGID_10_"
         gradientUnits="userSpaceOnUse"
         gradientTransform="matrix(0.4226,-0.9063,0.9063,0.4226,4226.9761,-6584.5938)">
        <stop
           id="stop4829"
           style="stop-color:#9e2064;stop-opacity:1"
           offset="0.3233" />
        <stop
           id="stop4831"
           style="stop-color:#c92037;stop-opacity:1"
           offset="0.63020003" />
        <stop
           id="stop4833"
           style="stop-color:#cd2335;stop-opacity:1"
           offset="0.75139999" />
        <stop
           id="stop4835"
           style="stop-color:#e97826;stop-opacity:1"
           offset="1" />
      </linearGradient>
      <path
         d="M 220.8,236.9 Z"
         id="path4837"
         style="fill:url(#linearGradient5362)" />
    </g>
  </g>
  <g
     transform="translate(385.61463,-191.53704)"
     id="g4845" />
  <g
     transform="translate(385.61463,-191.53704)"
     id="g4847" />
  <g
     transform="translate(385.61463,-191.53704)"
     id="g4849" />
  <g
     transform="translate(385.61463,-191.53704)"
     id="g4851" />
  <g
     transform="translate(385.61463,-191.53704)"
     id="g4853" />
  <g
     transform="translate(385.61463,-191.53704)"
     id="g4855" />
</svg>
