<?xml version="1.0" encoding="UTF-8" standalone="no"?>
<svg
   height="128"
   width="128"
   version="1.1"
   id="svg1"
   sodipodi:docname="sql.svg"
   inkscape:version="1.3.2 (091e20ef0f, 2023-11-25, custom)"
   xmlns:inkscape="http://www.inkscape.org/namespaces/inkscape"
   xmlns:sodipodi="http://sodipodi.sourceforge.net/DTD/sodipodi-0.dtd"
   xmlns="http://www.w3.org/2000/svg"
   xmlns:svg="http://www.w3.org/2000/svg">
  <defs
     id="defs1" />
  <sodipodi:namedview
     id="namedview1"
     pagecolor="#ffffff"
     bordercolor="#000000"
     borderopacity="0.25"
     inkscape:showpageshadow="2"
     inkscape:pageopacity="0.0"
     inkscape:pagecheckerboard="0"
     inkscape:deskcolor="#d1d1d1"
     inkscape:zoom="5.3928571"
     inkscape:cx="56.278146"
     inkscape:cy="62.582781"
     inkscape:window-width="2560"
     inkscape:window-height="1009"
     inkscape:window-x="0"
     inkscape:window-y="0"
     inkscape:window-maximized="1"
     inkscape:current-layer="svg1" />
  <path
     d="m 56.477092,127.21694 c -11.850022,-0.85416 -23.562254,-3.83693 -30.745226,-7.83011 -4.091421,-2.27438 -7.208509,-5.06961 -8.431674,-7.56083 l -0.727743,-1.48225 V 63.850542 17.357274 l 0.575883,-1.169199 c 2.57345,-5.224776 10.786512,-9.9350305 22.251467,-12.7611837 3.891815,-0.9594127 9.510212,-1.9148467 14.093763,-2.3966329 4.680361,-0.4920946 17.086137,-0.41722243 21.754869,0.132021 12.40858,1.4578372 22.967437,4.7216489 29.474459,9.1107136 2.50941,1.692581 5.08438,4.400819 5.9567,6.265028 l 0.74796,1.598358 -0.064,46.352566 -0.064,46.352865 -0.60033,1.21966 c -0.33018,0.67078 -1.32756,1.99062 -2.21638,2.93267 -5.41071,5.73568 -17.016584,9.97862 -32.239706,11.7864 -3.1028,0.36858 -16.582486,0.66662 -19.765837,0.43712 z M 78.314827,87.378453 c -0.04557,-0.118819 -1.817043,-1.69694 -3.936595,-3.507093 -2.119551,-1.810152 -3.94504,-3.376246 -4.056643,-3.480217 -0.111584,-0.103989 0.279975,-0.472129 0.8702,-0.818114 0.590206,-0.345986 1.721029,-1.308455 2.512919,-2.138831 2.315793,-2.428318 3.40842,-5.427888 3.40842,-9.356996 0,-3.868033 -1.178459,-6.988973 -3.538723,-9.371319 -2.378782,-2.401335 -5.110007,-3.433088 -9.087492,-3.433088 -6.130964,0 -10.839609,3.577407 -12.342478,9.377288 -0.51698,1.994963 -0.514195,6.026142 0.0054,7.795079 1.355313,4.614151 5.046529,7.965278 9.640461,8.752195 1.554593,0.266284 1.765193,0.38107 2.825069,1.539835 0.629884,0.688643 1.92246,2.063234 2.872396,3.05464 l 1.727142,1.802538 h 4.5914 c 2.525272,0 4.554109,-0.09712 4.508535,-0.215917 z M 62.56901,74.52272 c -1.105341,-0.576335 -1.523215,-1.023597 -2.153551,-2.304996 -0.486832,-0.989687 -0.570078,-1.552621 -0.57554,-3.891852 -0.0054,-2.37692 0.07017,-2.890536 0.578487,-3.922651 0.831642,-1.688964 1.977693,-2.488505 3.750554,-2.616728 2.467779,-0.179042 3.892213,1.032115 4.638783,3.942725 0.915321,3.568564 -0.09115,7.362557 -2.287237,8.621676 -1.152145,0.660593 -2.870769,0.73532 -3.951496,0.171808 z m -20.351395,6.623999 c 4.813864,-0.912934 7.546536,-3.712503 7.546536,-7.731275 0,-3.565236 -1.764162,-5.642613 -6.640113,-7.819332 -2.791213,-1.246061 -3.802222,-2.02824 -3.802222,-2.942078 0,-0.757403 0.959449,-1.587326 2.0764,-1.795847 1.090566,-0.203638 3.983001,0.298765 5.691063,0.98871 l 1.43174,0.578361 v -3.169227 -3.169408 l -1.553923,-0.344701 c -0.960371,-0.213042 -2.978411,-0.340904 -5.283316,-0.334393 -3.264861,0 -3.904222,0.07957 -5.132868,0.567509 -3.58889,1.424742 -5.291925,3.851758 -5.264689,7.50259 0.0255,3.417715 1.828545,5.549655 6.315793,7.46754 2.647636,1.131619 3.708813,1.9933 3.708813,3.011562 0,2.163878 -3.605474,2.43018 -7.42278,0.548248 -1.045407,-0.515388 -1.984637,-0.979071 -2.087197,-1.030414 -0.102542,-0.05136 -0.186475,1.429136 -0.186475,3.289981 0,3.368144 0.0036,3.384385 0.613427,3.616542 2.296424,0.873111 7.371943,1.262103 9.989811,0.765632 z M 97.251916,78.022234 V 75.163022 H 92.900938 88.549979 V 65.342198 55.521465 H 84.696251 80.84254 v 12.679982 12.68 h 8.204688 8.204688 z M 70.400205,27.917506 c 7.658067,-0.531158 13.398502,-1.533975 18.449986,-3.22294 5.032423,-1.682634 8.005228,-3.718651 8.670216,-5.93805 0.256193,-0.855243 0.237746,-1.179689 -0.120266,-2.1174 C 95.794639,12.435243 86.825912,9.2054315 73.121067,7.8958919 67.258721,7.3356166 56.597267,7.5171906 51.007644,8.2722421 42.478654,9.4246225 35.556975,11.56517 32.479313,14.002133 c -6.225802,4.929989 0.357958,10.352253 15.668847,12.904418 6.638738,1.106625 15.239814,1.497443 22.252118,1.010955 z"
     fill="#00bcf2"
     id="path1"
     style="stroke-width:1.80851" />
</svg>
