<?xml version="1.0" encoding="UTF-8" standalone="no"?>
<!-- Created with Inkscape (http://www.inkscape.org/) -->

<svg
   version="1.0"
   width="100"
   height="100"
   id="svg2"
   sodipodi:docname="xml.svg"
   inkscape:version="1.4 (e7c3feb100, 2024-10-09)"
   xmlns:inkscape="http://www.inkscape.org/namespaces/inkscape"
   xmlns:sodipodi="http://sodipodi.sourceforge.net/DTD/sodipodi-0.dtd"
   xmlns="http://www.w3.org/2000/svg"
   xmlns:svg="http://www.w3.org/2000/svg">
  <sodipodi:namedview
     id="namedview1"
     pagecolor="#ffffff"
     bordercolor="#000000"
     borderopacity="0.25"
     inkscape:showpageshadow="2"
     inkscape:pageopacity="0.0"
     inkscape:pagecheckerboard="0"
     inkscape:deskcolor="#d1d1d1"
     inkscape:zoom="6.7212758"
     inkscape:cx="48.205134"
     inkscape:cy="49.023431"
     inkscape:window-width="2560"
     inkscape:window-height="1009"
     inkscape:window-x="1080"
     inkscape:window-y="464"
     inkscape:window-maximized="1"
     inkscape:current-layer="svg2" />
  <defs
     id="defs5" />
  <path
     d="M 97.672611,68.536946 95.01625,65.943723 94.963786,34.087465 97.672931,31.473196 Z"
     style="opacity:1;fill:#803300;fill-rule:evenodd;stroke:none;stroke-width:2.64892px;stroke-linecap:butt;stroke-linejoin:miter;stroke-opacity:1"
     id="path2764" />
  <rect
     width="90.083542"
     height="31.865559"
     x="4.9327226"
     y="34.087811"
     style="opacity:1;fill:#ff6600;fill-opacity:1;stroke:none;stroke-width:5.29784;stroke-linecap:round;stroke-linejoin:round;stroke-miterlimit:4;stroke-dasharray:none;stroke-opacity:1"
     id="rect1873" />
  <path
     d="m 2.3180998,31.452154 95.3645012,0.0106 -2.698083,2.614617 -90.0207601,0.03104 z"
     style="opacity:1;fill:#ffccaa;fill-opacity:1;fill-rule:evenodd;stroke:none;stroke-width:2.64892px;stroke-linecap:butt;stroke-linejoin:miter;stroke-opacity:1"
     id="path1875" />
  <path
     d="m 2.3280987,68.537799 95.3541523,0.01005 -2.667048,-2.614616 H 4.932369 Z"
     style="opacity:1;fill:#552200;fill-opacity:1;fill-rule:evenodd;stroke:none;stroke-width:2.64892px;stroke-linecap:butt;stroke-linejoin:miter;stroke-opacity:1"
     id="path2762" />
  <path
     d="M 4.953412,65.911285 2.3184488,68.536946 2.3173988,31.452153 4.942711,34.077116 Z"
     style="opacity:1;fill:#ff9955;fill-rule:evenodd;stroke:none;stroke-width:2.64892px;stroke-linecap:butt;stroke-linejoin:miter;stroke-opacity:1"
     id="path3651" />
  <g
     id="g4580"
     transform="matrix(2.6489249,0,0,2.6489249,2.3174027,31.452154)">
    <path
       d="M 4.8170128,3.8673983 H 7.7408409 L 9.2642784,6.5099764 10.740841,3.8673983 h 2.894531 l -2.671875,4.1601562 2.923828,4.4296875 H 10.904903 L 9.211544,9.6974764 7.5123253,12.457242 H 4.5474815 L 7.5123253,7.9806795 Z m 9.8906252,0 h 3.492187 l 1.347657,5.2265625 1.341796,-5.2265625 h 3.480469 V 12.457242 H 22.201778 V 5.9064608 l -1.68164,6.5507812 H 18.557247 L 16.881466,5.9064608 v 6.5507812 h -2.173828 z m 11.349609,0 h 2.654297 v 6.4746097 h 4.142578 v 2.115234 h -6.796875 z"
       style="font-style:normal;font-variant:normal;font-weight:800;font-stretch:normal;font-size:12px;line-height:125%;font-family:'Arial Black';text-align:start;writing-mode:lr-tb;text-anchor:start;fill:#803300;fill-opacity:1;stroke:none;stroke-width:1px;stroke-linecap:butt;stroke-linejoin:miter;stroke-opacity:1"
       id="text4574" />
    <path
       d="M 4.2424884,2.9393196 H 7.1663165 L 8.689754,5.5818977 10.166317,2.9393196 h 2.894531 l -2.671875,4.1601563 2.923828,4.4296871 H 10.330379 L 8.6370196,8.7693977 6.9378009,11.529163 H 3.9729571 L 6.9378009,7.0526009 Z m 9.8906246,0 h 3.492188 l 1.347656,5.2265625 1.341797,-5.2265625 h 3.480469 V 11.529163 H 21.627254 V 4.9783821 l -1.681641,6.5507809 h -1.96289 L 16.306942,4.9783821 v 6.5507809 h -2.173829 z m 11.34961,0 H 28.13702 V 9.413929 h 4.142578 v 2.115234 h -6.796875 z"
       style="font-style:normal;font-variant:normal;font-weight:800;font-stretch:normal;font-size:12px;line-height:125%;font-family:'Arial Black';text-align:start;writing-mode:lr-tb;text-anchor:start;fill:#ffffff;fill-opacity:1;stroke:none;stroke-width:1px;stroke-linecap:butt;stroke-linejoin:miter;stroke-opacity:1"
       id="text4570" />
  </g>
</svg>
