<?xml version="1.0" encoding="UTF-8" standalone="no"?>
<!-- Generator: Gravit.io -->

<svg
   style="isolation:isolate"
   viewBox="0 0 48 48"
   width="48"
   height="48"
   version="1.1"
   id="svg6"
   sodipodi:docname="lite-xl.svg"
   inkscape:version="1.3 (0e150ed6c4, 2023-07-21)"
   xmlns:inkscape="http://www.inkscape.org/namespaces/inkscape"
   xmlns:sodipodi="http://sodipodi.sourceforge.net/DTD/sodipodi-0.dtd"
   xmlns="http://www.w3.org/2000/svg"
   xmlns:svg="http://www.w3.org/2000/svg">
  <sodipodi:namedview
     id="namedview6"
     pagecolor="#ffffff"
     bordercolor="#000000"
     borderopacity="0.25"
     inkscape:showpageshadow="2"
     inkscape:pageopacity="0.0"
     inkscape:pagecheckerboard="0"
     inkscape:deskcolor="#d1d1d1"
     inkscape:zoom="11.372634"
     inkscape:cx="29.368746"
     inkscape:cy="23.21362"
     inkscape:window-width="1263"
     inkscape:window-height="1024"
     inkscape:window-x="1283"
     inkscape:window-y="42"
     inkscape:window-maximized="1"
     inkscape:current-layer="svg6" />
  <defs
     id="defs1">
    <clipPath
       id="_clipPath_oQOpAlaS5aQPNgwhNjsJr8QwgeI7VsJ1">
      <rect
         width="48"
         height="48"
         id="rect1" />
    </clipPath>
  </defs>
  <g
     clip-path="url(#_clipPath_oQOpAlaS5aQPNgwhNjsJr8QwgeI7VsJ1)"
     id="g6">
    <rect
       width="48"
       height="48"
       style="fill:rgb(0,0,0)"
       fill-opacity="0"
       id="rect2" />
    <path
       d="M 8.3591914,5.2310294 H 39.640809 c 1.726745,0 3.128162,1.4014164 3.128162,3.1281621 V 39.640809 c 0,1.726745 -1.401417,3.128162 -3.128162,3.128162 H 8.3591914 c -1.7267457,0 -3.1281621,-1.401417 -3.1281621,-3.128162 V 8.3591915 c 0,-1.7267457 1.4014164,-3.1281621 3.1281621,-3.1281621 z"
       style="fill:#2e2e32;stroke:none;stroke-width:0.78204;stroke-miterlimit:10"
       id="path2" />
    <path
       d=" M 19 27 L 19 15 C 19 13.896 18.104 13 17 13 L 13 13 L 13 30 C 13 32.76 15.24 35 18 35 L 35 35 L 35 31 C 35 29.896 34.104 29 33 29 L 21 29 C 19.896 29 19 28.104 19 27 Z "
       fill="rgb(225,225,230)"
       id="path3" />
    <path
       d=" M 24 22 L 24 16 L 29 19 L 32 24 L 26 24 C 24.896 24 24 23.104 24 22 Z "
       fill="rgb(147,221,250)"
       id="path4" />
    <path
       d=" M 35 13 L 21 13 L 35 27 L 35 13 Z "
       fill="rgb(255,169,77)"
       id="path5" />
    <path
       d=" M 32 16 L 24 16 L 32 24 L 32 16 Z "
       fill="rgb(247,201,92)"
       id="path6" />
  </g>
</svg>
